<svg width="600" height="450" viewBox="0 0 600 450" fill="none" xmlns="http://www.w3.org/2000/svg">
<path opacity="0.4" d="M256.526 268.245C257.456 267.556 258.868 267.25 259.929 267.508C263.524 268.382 271.712 271.325 275.998 280.502C281.027 291.269 273.185 298.669 271.547 300.057C273.561 302.911 275.171 304.778 275.84 305.521C278.212 304.233 280.723 302.844 283.347 301.358C287.598 298.974 292.103 296.317 296.825 293.477C297.993 292.759 299.178 292.032 300.377 291.295C300.976 290.926 301.579 290.556 302.186 290.183C302.783 289.804 303.384 289.424 303.988 289.041C305.196 288.275 306.417 287.501 307.651 286.72C308.834 285.948 310.028 285.167 311.232 284.381C310.067 283.241 307.802 280.966 305.043 277.915C302.505 278.031 289.001 278.173 283.595 268.455C279.014 260.221 283.599 254.547 285.994 252.344C286.694 251.7 287.901 251.338 288.904 251.472C292.3 251.926 300.221 253.751 305.857 261.06C312.506 269.684 306.811 276.468 305.656 277.692C308.35 280.67 310.566 282.898 311.74 284.048C314.086 282.525 316.391 280.937 318.75 279.344C320.009 278.505 321.214 277.629 322.455 276.765C323.686 275.895 324.937 275.027 326.168 274.144C330.176 271.227 334.194 268.248 338.081 265.203C337.475 264.759 336.462 264.008 335.15 262.998C333.712 261.892 331.909 260.469 329.901 258.815C327.781 259.045 315.01 260.045 308.515 251.665C303.077 244.649 306.536 239.385 308.45 237.306C309.01 236.698 310.082 236.311 311.033 236.374C314.258 236.585 321.89 237.756 328.178 243.895C335.436 250.982 331.447 257.171 330.428 258.508C334.198 261.615 337.223 263.879 338.537 264.843C339.23 264.298 339.928 263.755 340.61 263.205C347.097 258.038 353.236 252.733 358.835 247.472C357.92 246.958 355.239 245.385 351.892 242.811C351.148 242.239 350.365 241.599 349.568 240.929C347.537 241.054 337.152 241.316 332.633 234.009C328.787 227.79 332.137 223.396 333.914 221.681C334.433 221.18 335.356 220.886 336.138 220.975C338.787 221.274 344.992 222.555 349.623 228.053C354.949 234.376 351.122 239.53 350.137 240.667C354.388 244.239 358.042 246.415 359.24 247.093C361.584 244.881 363.841 242.677 365.97 240.497C367.451 238.986 368.872 237.487 370.239 236.004C370.224 235.984 370.205 235.965 370.205 235.939C370.206 235.833 370.348 235.725 370.523 235.695C370.999 235.176 371.468 234.659 371.93 234.145C371.501 233.372 369.625 229.982 367.361 225.734C365.238 225.634 355.606 224.745 353.318 216.842C351.345 210.027 355.67 205.843 357.802 204.258C358.425 203.795 359.373 203.588 360.086 203.76C362.504 204.343 368.013 206.309 370.917 212.461C374.304 219.637 369.139 224.593 368 225.568C370.038 229.39 371.757 232.511 372.383 233.641C376.844 228.637 380.63 223.865 383.713 219.548C384.277 218.767 384.831 218.001 385.371 217.254C385.908 216.506 386.349 215.765 386.824 215.049C386.951 214.853 387.069 214.67 387.194 214.477C386.25 213.804 382.921 210.826 386.589 204.279C389.827 198.5 394.675 195.616 396.765 194.584C397.382 194.279 398.143 194.237 398.6 194.482C400.163 195.319 403.206 197.823 400.656 203.943C397.657 211.138 389.331 214.041 387.708 214.547C387.591 214.734 387.48 214.912 387.361 215.102C386.899 215.822 386.472 216.566 385.948 217.319C385.421 218.071 384.882 218.841 384.331 219.626C380.994 224.446 376.793 229.838 371.762 235.495C374.369 235.073 380.812 234.038 388.209 232.901C389.227 231.908 394.49 227.356 407.029 225.574C417.841 224.037 423.407 225.595 425.418 226.407C426.012 226.647 426.13 227.166 425.704 227.658C424.246 229.341 419.796 233.204 408.394 235.462C395.187 238.078 389.378 234.192 388.236 233.283C380.419 234.485 373.658 235.574 371.359 235.947C369.945 237.527 368.47 239.126 366.927 240.739C364.345 243.449 361.581 246.195 358.677 248.951C360.346 249.223 364.973 249.938 371.366 250.626C372.736 249.799 380.097 245.78 392.833 246.471C403.695 247.06 408.011 249.968 409.435 251.296C409.855 251.688 409.683 252.289 409.02 252.744C406.754 254.301 400.528 257.642 388.726 257.727C375.049 257.827 371.775 252.279 371.213 251.032C364.639 250.328 359.904 249.591 358.284 249.326C353.194 254.137 347.665 258.976 341.855 263.705C340.591 264.746 339.305 265.777 338.008 266.802C339.517 267.144 344.096 268.161 350.458 269.397C352.26 268.539 361.285 264.708 374.697 266.884C386.223 268.754 390.058 272.624 391.221 274.331C391.564 274.835 391.211 275.519 390.372 275.979C387.499 277.554 379.869 280.783 367.143 279.6C352.124 278.204 350.348 271.128 350.146 269.785C343.604 268.514 338.942 267.473 337.551 267.157C334.259 269.748 330.889 272.293 327.523 274.795C326.301 275.692 325.057 276.572 323.834 277.455C322.601 278.333 321.403 279.222 320.151 280.074C317.667 281.788 315.242 283.498 312.765 285.129C312.458 285.334 312.157 285.535 311.851 285.739C312.889 286.206 315.833 287.488 320.525 289.197C322.684 288.394 333.842 284.734 348.155 288.897C360.388 292.455 363.517 297.553 364.311 299.742C364.545 300.388 363.956 301.173 362.892 301.632C359.252 303.205 349.859 306.233 336.098 303.368C319.648 299.942 319.943 291.036 320.11 289.56C315.339 287.823 312.369 286.525 311.356 286.069C310.605 286.57 309.85 287.074 309.107 287.569C307.879 288.364 306.663 289.151 305.459 289.929C304.857 290.318 304.259 290.706 303.664 291.091C303.06 291.47 302.459 291.848 301.862 292.222C300.667 292.971 299.487 293.712 298.322 294.443C293.615 297.334 289.12 300.04 284.875 302.472C282.017 304.124 279.295 305.659 276.736 307.073C277.725 307.565 280.76 309.034 285.457 310.968C287.247 310.315 299.988 306.067 315.914 311.209C329.085 315.461 332.202 321.215 332.94 323.673C333.158 324.399 332.465 325.259 331.274 325.746C327.196 327.413 316.737 330.567 301.852 327.051C284.382 322.924 284.893 313.287 285.173 311.386C280.251 309.365 277.111 307.837 276.189 307.376C271.406 310.011 267.23 312.208 263.922 313.905C261.328 315.236 259.263 316.26 257.841 316.953C256.427 317.645 255.635 318.013 255.635 318.013L254.229 316.515C254.229 316.515 254.966 316.18 256.371 315.507C257.774 314.839 259.825 313.843 262.409 312.545C265.85 310.817 270.244 308.553 275.294 305.819C274.636 305.09 273 303.199 270.948 300.291C268.621 300.214 253.27 299.242 249.778 286.992C246.881 276.829 253.344 270.602 256.526 268.245Z" fill="#111111" fill-opacity="0.3"/>
<g opacity="0.7">
<path d="M284.892 306.07C284.892 306.07 292.304 326.423 319.751 328.837C340.779 330.686 350.253 322.341 353.534 318.337C354.493 317.167 354.506 315.497 353.563 314.314C350.368 310.306 341.235 301.315 321.552 297.723C295.863 293.034 284.892 306.07 284.892 306.07Z" fill="#00BF62"/>
</g>
<g opacity="0.7">
<path d="M258.12 291.558C258.12 291.558 237.02 296.455 220.018 274.773C206.992 258.162 208.814 245.669 210.379 240.734C210.836 239.292 212.228 238.37 213.734 238.514C218.837 239.004 231.355 241.75 245.107 256.282C263.056 275.25 258.12 291.558 258.12 291.558Z" fill="#00BF62"/>
</g>
<g opacity="0.7">
<path d="M277.707 243.531C277.707 243.531 260.038 250.243 242.792 233.493C229.579 220.66 229.687 209.644 230.46 205.193C230.686 203.892 231.781 202.932 233.1 202.88C237.569 202.704 248.716 203.609 262.313 214.559C280.06 228.851 277.707 243.531 277.707 243.531Z" fill="#00BF62"/>
</g>
<g opacity="0.7">
<path d="M289.142 203.807C289.142 203.807 273.696 211.411 256.618 197.702C243.534 187.199 242.686 177.2 243.005 173.098C243.098 171.899 244.009 170.934 245.201 170.774C249.239 170.231 259.424 170.094 272.695 178.856C290.015 190.293 289.142 203.807 289.142 203.807Z" fill="#00BF62"/>
</g>
<g opacity="0.7">
<path d="M295.748 167.62C295.748 167.62 282.304 173.165 268.676 160.655C258.236 151.07 258.081 142.596 258.579 139.156C258.725 138.151 259.546 137.388 260.56 137.32C263.994 137.088 272.586 137.543 283.281 145.671C297.24 156.279 295.748 167.62 295.748 167.62Z" fill="#00BF62"/>
</g>
<g opacity="0.7">
<path d="M302.716 136.614C302.716 136.614 288.558 139.936 277.108 125.407C268.336 114.275 269.539 105.885 270.581 102.569C270.886 101.6 271.819 100.979 272.83 101.073C276.257 101.394 284.666 103.217 293.922 112.952C306.004 125.658 302.716 136.614 302.716 136.614Z" fill="#00BF62"/>
</g>
<g opacity="0.7">
<path d="M305.973 259.051C305.973 259.051 313.282 277.244 338.183 278.613C357.261 279.662 365.584 271.832 368.434 268.112C369.267 267.025 369.229 265.514 368.341 264.472C365.332 260.941 356.803 253.078 338.891 250.412C315.51 246.933 305.973 259.051 305.973 259.051Z" fill="#00BF62"/>
</g>
<g opacity="0.7">
<path d="M323.003 216.708C323.003 216.708 331.5 231.153 352.722 229.136C368.981 227.591 375.018 219.911 376.952 216.404C377.517 215.379 377.293 214.107 376.409 213.339C373.415 210.738 365.204 205.179 349.724 205.209C329.52 205.249 323.003 216.708 323.003 216.708Z" fill="#00BF62"/>
</g>
<g opacity="0.7">
<path d="M330.278 178.604C330.278 178.604 339.56 190.084 357.787 185.565C371.751 182.103 376.012 174.627 377.24 171.32C377.599 170.353 377.238 169.275 376.368 168.721C373.421 166.844 365.544 163.07 352.062 165.11C334.465 167.773 330.278 178.604 330.278 178.604Z" fill="#00BF62"/>
</g>
<g opacity="0.7">
<path d="M333.724 143.531C333.724 143.531 345.269 151.096 360.202 141.862C371.643 134.787 373.298 126.914 373.446 123.619C373.489 122.656 372.859 121.799 371.927 121.554C368.767 120.726 360.676 119.618 349.258 125.29C334.354 132.692 333.724 143.531 333.724 143.531Z" fill="#00BF62"/>
</g>
<g opacity="0.7">
<path d="M315.615 112.031C315.615 112.031 324.85 104.622 321.282 89.9899C318.549 78.7799 312.566 75.3399 309.917 74.3439C309.143 74.0529 308.276 74.3389 307.83 75.0349C306.316 77.3919 303.265 83.6989 304.86 94.5179C306.941 108.64 315.615 112.031 315.615 112.031Z" fill="#00BF62"/>
</g>
<path opacity="0.7" d="M336.557 315.296C336.574 315.088 336.422 314.906 336.211 314.89C302.591 312.146 275.324 303.117 271.029 301.636C272.741 298.493 274.535 295.097 276.378 291.462C279.137 286.1 281.935 280.197 284.813 273.918C285.51 272.338 286.217 270.737 286.932 269.116C287.289 268.306 287.649 267.49 288.011 266.67C288.356 265.843 288.703 265.01 289.053 264.174C289.751 262.501 290.457 260.81 291.169 259.102C291.586 258.044 292.01 256.969 292.431 255.898C296.457 257.125 319.411 263.757 352.839 266.208C353.047 266.224 353.228 266.067 353.244 265.859C353.259 265.65 353.101 265.469 352.895 265.455C319.701 263.021 296.868 256.458 292.709 255.193C292.881 254.757 293.05 254.328 293.222 253.89C294.633 250.397 295.906 246.784 297.247 243.148C297.934 241.336 298.522 239.475 299.161 237.623C299.784 235.765 300.435 233.906 301.044 232.025C302.691 226.791 304.302 221.478 305.778 216.112C310.201 216.455 338.101 218.463 364.857 216.806C365.065 216.793 365.224 216.614 365.21 216.406C365.198 216.198 365.017 216.04 364.81 216.053C338.398 217.688 310.856 215.746 305.985 215.372C306.563 213.25 307.121 211.121 307.644 208.981C310.099 199.24 312.118 189.389 313.64 179.71C318.24 179.708 341.365 179.416 364.265 174.042C364.468 173.995 364.594 173.792 364.546 173.589C364.499 173.386 364.295 173.259 364.093 173.308C341.434 178.624 318.557 178.949 313.752 178.955C314.61 173.413 315.31 167.928 315.829 162.556C316.144 159.357 316.392 156.201 316.586 153.095C321.815 150.278 349.325 135.528 362.416 129.831C362.607 129.749 362.695 129.526 362.611 129.335C362.53 129.143 362.307 129.054 362.115 129.14C349.31 134.712 322.765 148.914 316.641 152.208C317.296 141.095 317.211 130.668 316.64 121.467C316.554 119.965 316.471 118.494 316.389 117.057C316.303 115.62 316.11 114.224 315.981 112.859C315.695 110.132 315.423 107.545 315.168 105.114C314.796 102.698 314.448 100.437 314.126 98.3468C313.783 96.2598 313.542 94.3308 313.192 92.6118C311.755 85.7438 310.933 81.8198 310.933 81.8198L310.68 81.8778C310.68 81.8778 311.446 85.8078 312.787 92.6838C313.113 94.4038 313.326 96.3338 313.64 98.4208C313.933 100.511 314.249 102.77 314.587 105.185C314.808 107.613 315.043 110.197 315.291 112.92C315.401 114.283 315.574 115.676 315.64 117.11C315.702 118.544 315.765 120.012 315.83 121.51C316.23 129.778 316.224 139.025 315.631 148.858C311.414 144.753 289.943 123.787 278.224 111.109C278.081 110.958 277.844 110.947 277.69 111.088C277.537 111.23 277.527 111.469 277.669 111.622C289.93 124.886 312.843 147.202 315.566 149.849C315.501 150.861 315.43 151.879 315.353 152.903C315.174 153.004 315.107 153.229 315.205 153.411C315.23 153.456 315.27 153.483 315.307 153.513C315.079 156.44 314.8 159.409 314.462 162.416C313.983 166.753 313.375 171.166 312.671 175.617C308.616 173.996 287.844 165.135 267.79 146.342C267.636 146.195 267.399 146.206 267.257 146.359C267.114 146.511 267.122 146.75 267.274 146.892C279.065 157.941 291.107 165.575 299.891 170.337C306.301 173.812 310.975 175.756 312.548 176.38C310.844 186.973 308.539 197.794 305.69 208.476C305.396 209.61 305.077 210.737 304.767 211.867C299.066 208.906 276.032 196.656 254.982 181.359C254.818 181.236 254.578 181.274 254.454 181.443C254.332 181.612 254.369 181.847 254.538 181.971C271.372 194.204 289.47 204.492 298.998 209.656C301.512 211.019 303.424 212.022 304.564 212.613C302.809 218.927 300.836 225.163 298.816 231.29C298.185 233.151 297.513 234.99 296.868 236.827C296.207 238.659 295.599 240.499 294.891 242.29C293.586 245.685 292.338 249.055 290.983 252.326C284.418 247.981 262.092 232.772 242 214.048C241.848 213.903 241.609 213.915 241.466 214.067C241.324 214.219 241.333 214.458 241.485 214.601C261.744 233.48 284.27 248.793 290.691 253.038C290 254.724 289.314 256.398 288.635 258.054C287.904 259.74 287.18 261.41 286.464 263.062C286.106 263.888 285.75 264.71 285.396 265.526C285.026 266.335 284.658 267.141 284.292 267.941C283.56 269.541 282.836 271.121 282.122 272.68C279.179 278.875 276.322 284.696 273.511 289.978C271.789 293.262 270.11 296.35 268.501 299.225C264.266 296.151 242.628 279.819 220.677 251.78C220.548 251.619 220.311 251.587 220.147 251.716C219.983 251.845 219.954 252.082 220.083 252.246C242.19 280.484 264.009 296.903 268.129 299.888C264.696 305.995 261.602 311.111 259.136 315.041C257.284 317.991 255.782 320.276 254.742 321.815C253.704 323.364 253.142 324.144 253.142 324.144L256.228 326.318C256.228 326.318 256.824 325.464 257.854 323.88C258.894 322.294 260.385 319.957 262.218 316.947C264.555 313.107 267.454 308.168 270.662 302.306C274.572 303.661 302.115 312.864 336.15 315.641C336.358 315.658 336.541 315.504 336.557 315.296Z" fill="#00BF62"/>
<path opacity="0.7" d="M129.617 201.075C129.616 201.05 129.616 201.025 129.615 201C127.995 145.54 144.513 129.003 159.601 141.935C166.282 147.662 168.742 156.85 166.512 165.363C165.782 168.15 165.352 171.064 165.752 174.284C166.262 178.39 168.363 181.05 171.056 182.761C176.801 186.412 180.713 192.346 181.519 199.105C181.957 202.777 182.308 206.598 182.563 210.562C186.808 276.628 203.818 316.523 208.582 332.377C210.05 337.262 204.462 341.195 200.362 338.159C189.229 329.916 159.51 304.942 142.314 262.377C139.9 256.401 140.25 249.713 142.944 243.858C143.983 241.599 144.493 238.73 144.177 235.085C143.454 226.736 138.956 220.113 134.198 213.862C131.389 210.173 129.755 205.71 129.617 201.075Z" fill="#00BF62"/>
<path opacity="0.7" d="M155.79 206.064L129.517 195.57C129.516 195.419 129.513 195.264 129.512 195.113L155.732 205.586C153.903 190.19 152.711 173.846 152.16 156.647L135.325 152.016C135.377 151.882 135.431 151.753 135.484 151.621L152.146 156.205C151.958 150.219 151.851 144.125 151.819 137.936C151.96 137.96 152.102 137.992 152.244 138.022C152.344 155.62 153.072 171.722 154.281 186.419L166.322 176.82C166.37 176.963 166.42 177.103 166.472 177.241L154.324 186.926C155.939 206.342 158.387 223.311 161.306 238.072L183.072 217.615C183.086 217.795 183.101 217.974 183.116 218.154L161.404 238.56C166.367 263.478 172.67 282.082 178.562 295.544C178.913 296.346 179.265 297.131 179.616 297.906L192.421 278.446C192.465 278.636 192.51 278.823 192.554 279.013L179.822 298.362C191.673 324.313 203.703 335.213 207.016 337.877C206.908 337.972 206.796 338.062 206.68 338.149C204.269 336.196 197.706 330.261 189.949 318.079L178.26 318.281C178.221 318.24 178.183 318.2 178.144 318.158C178.068 318.077 177.992 317.996 177.915 317.914C177.9 317.898 177.884 317.881 177.869 317.865L189.683 317.661C186.007 311.84 182.074 304.623 178.195 295.766C174.091 286.395 170.443 276.109 167.264 264.993L141.929 261.413C141.869 261.262 141.809 261.112 141.749 260.961L167.134 264.548C163.874 253.079 161.114 240.728 158.881 227.572C157.706 220.627 156.675 213.454 155.79 206.064Z" fill="#00BF62"/>
<path opacity="0.4" d="M42.439 302.907C37.096 292.546 35.449 284.839 36.43 279.609C36.439 279.564 36.448 279.519 36.457 279.474H36.461C37.61 273.672 42.025 270.965 48.194 271.085C48.192 271.082 48.19 271.078 48.189 271.075C48.329 271.078 48.471 271.084 48.612 271.09L48.613 271.093C51.041 271.189 53.725 271.705 56.583 272.64C64.402 275.196 69.169 279.882 69.339 284.544C69.395 286.07 69.767 287.642 71.003 289.317C71.381 289.829 71.825 290.287 72.319 290.703C72.359 290.737 72.398 290.77 72.439 290.803C73.993 292.066 76.041 292.896 78.259 293.425C84.642 294.949 89.91 297.811 92.471 301.329C93.863 303.241 95.213 305.237 96.51 307.316C118.13 341.965 144.789 361.864 153.503 369.912C154.722 371.038 154.511 372.159 153.489 372.929C153.491 372.93 153.494 372.93 153.496 372.931C153.419 372.989 153.338 373.045 153.253 373.098C153.253 373.098 153.25 373.097 153.248 373.097C151.961 373.903 149.697 374.227 147.306 373.554C141.873 372.024 132.405 369.107 121.197 364.604H121.193C121.146 364.585 121.099 364.566 121.051 364.547C120.958 364.509 120.864 364.472 120.77 364.434C120.751 364.426 120.732 364.419 120.714 364.411H120.716C105.854 358.406 88.009 349.625 72.431 337.581C72.225 337.421 72.029 337.26 71.836 337.097H71.812C71.715 337.021 71.618 336.946 71.522 336.87H71.575C68.356 334.035 67.185 330.772 68.084 327.739C68.46 326.47 68.175 324.916 66.905 323.011C63.998 318.646 57.995 315.461 51.847 312.492C48.217 310.739 45.488 308.494 44.122 306.051C44.115 306.038 44.107 306.025 44.1 306.012C43.551 305.029 43.039 304.071 42.551 303.132C42.512 303.057 42.471 302.98 42.432 302.905L42.439 302.907Z" fill="#111111" fill-opacity="0.3"/>
<path opacity="0.7" d="M50.185 208.598C50.18 208.566 50.175 208.535 50.17 208.503C38.96 137.543 57.451 113.585 78.957 127.71C88.481 133.965 93.153 145.361 91.689 156.661C91.21 160.361 91.1381 164.173 92.1821 168.244C93.5131 173.433 96.6491 176.503 100.39 178.258C108.369 182.001 114.37 188.979 116.518 197.526C117.685 202.17 118.765 207.019 119.745 212.068C136.073 296.217 164.487 344.654 173.215 364.23C175.905 370.263 169.376 376.233 163.61 373.009C147.954 364.255 105.676 337.074 76.584 285.239C72.499 277.961 71.848 269.315 74.344 261.351C75.307 258.279 75.4891 254.51 74.4841 249.881C72.1811 239.278 65.3131 231.512 58.1741 224.268C53.9581 219.991 51.124 214.529 50.185 208.598Z" fill="#00BF62"/>
<path opacity="0.7" d="M84.6191 210.696L49.149 201.544C49.123 201.35 49.0931 201.151 49.0671 200.958L84.4651 210.092C79.5821 190.62 75.361 169.826 71.821 147.827L49.438 144.651C49.483 144.47 49.5311 144.296 49.5771 144.118L71.7311 147.262C70.5041 139.605 69.364 131.796 68.303 123.853C68.489 123.861 68.676 123.878 68.863 123.893C71.888 146.478 75.4751 167.038 79.4471 185.714L93.3311 171.403C93.4161 171.578 93.5041 171.751 93.5941 171.919L79.5861 186.357C84.8571 211.027 90.7931 232.417 96.9731 250.894L121.56 221.038C121.608 221.267 121.657 221.495 121.705 221.723L97.179 251.504C107.655 282.689 118.813 305.544 128.596 321.864C129.179 322.836 129.759 323.786 130.339 324.724L143.581 297.624C143.669 297.861 143.757 298.094 143.846 298.33L130.679 325.276C150.172 356.654 167.416 368.672 172.109 371.548C171.985 371.688 171.857 371.822 171.723 371.952C168.305 369.841 158.899 363.299 146.932 348.931L131.954 351.115C131.898 351.069 131.842 351.023 131.785 350.977C131.674 350.885 131.562 350.794 131.451 350.701C131.429 350.683 131.406 350.663 131.384 350.645L146.523 348.438C140.843 341.567 134.604 332.946 128.164 322.21C121.351 310.851 114.972 298.241 109.059 284.488L75.9321 284.061C75.8301 283.877 75.728 283.694 75.626 283.509L108.819 283.937C102.744 269.744 97.1671 254.336 92.1331 237.807C89.4771 229.085 86.9731 220.042 84.6191 210.696Z" fill="#00BF62"/>
<path d="M269.948 74.416L263.94 70.98L263.939 71C263.475 70.759 262.889 70.7789 262.241 71.1539L163.634 128.173C162.151 129.03 160.95 131.329 160.952 133.306L161.115 375.449C161.116 376.539 161.489 377.288 162.066 377.612L162.05 377.621L168.05 381.054L168.294 368.578L256.959 317.308C258.442 316.451 259.643 314.152 259.641 312.174L259.485 80.3119C259.716 81.0389 259.892 81.5699 259.917 81.5859C260.001 81.6439 269.948 74.416 269.948 74.416Z" fill="#2D2D2D"/>
<path d="M161.021 132.48L185.388 146.518L189.888 143.916L163.156 128.515C162.096 129.383 161.255 130.951 161.021 132.48Z" fill="url(#paint0_linear_136_181)"/>
<path d="M268.342 323.855L169.735 380.874C168.252 381.731 167.049 380.823 167.048 378.845L166.885 136.702C166.884 134.724 168.085 132.426 169.567 131.569L268.174 74.5499C269.657 73.6929 270.86 74.6009 270.861 76.5789L271.024 318.722C271.026 320.699 269.825 322.997 268.342 323.855Z" fill="url(#paint1_linear_136_181)"/>
<path d="M169.568 131.568L268.175 74.5491C269.057 74.0391 269.833 74.1651 270.323 74.7581C269.907 74.6471 269.418 74.7191 268.889 75.0241L170.282 132.043C168.799 132.9 167.598 135.199 167.6 137.177L167.763 379.32C167.764 380.121 167.968 380.735 168.302 381.139C167.551 380.938 167.049 380.117 167.048 378.844L166.885 136.701C166.884 134.724 168.085 132.426 169.568 131.568Z" fill="white"/>
<path d="M268.783 312.854L169.351 370.35L169.163 147.081L268.595 89.584L268.783 312.854Z" fill="#111111"/>
<path d="M229.345 106.385L210.536 117.299C209.987 117.617 209.52 117.712 209.317 117.195C209.249 117.021 209.211 116.808 209.21 116.561C209.209 115.582 209.804 114.444 210.538 114.02L229.546 103.029C229.603 102.996 229.658 102.929 229.715 102.945C230.314 103.112 230.414 103.228 230.414 104.13L230.33 104.384C230.33 105.364 230.079 105.961 229.345 106.385Z" fill="#2D2D2D"/>
<path d="M229.718 102.953C229.786 103.126 229.823 103.338 229.824 103.584C229.825 104.563 229.23 105.701 228.496 106.125L209.488 117.116C209.429 117.15 209.372 117.17 209.315 117.193C209.518 117.711 209.99 117.884 210.54 117.566L229.548 106.575C230.282 106.151 230.876 105.013 230.876 104.034C230.875 103.133 230.37 102.69 229.718 102.953Z" fill="#BCBEFF"/>
<path opacity="0.4" d="M221.876 210.894L243.739 338.082L341.287 359.753L303.642 381.487L301.889 382.499L280.845 380.985L270.697 400.508L243.27 416.343L205.751 360.048L221.876 210.894Z" fill="#111111" fill-opacity="0.3"/>
<g opacity="0.4">
<mask id="mask0_136_181" style="mask-type:luminance" maskUnits="userSpaceOnUse" x="169" y="166" width="93" height="73">
<path d="M261.626 188.237L169.24 238.829V166.459L261.626 188.237Z" fill="white"/>
</mask>
<g mask="url(#mask0_136_181)">
<path d="M317.888 311.198L149.234 166.459L303.195 272.315L317.888 311.198Z" fill="#111111"/>
<path d="M149.234 166.459L332.582 255.348L392.816 220.573L149.234 166.459Z" fill="#00BF62" fill-opacity="0.4"/>
<path d="M149.234 166.459L303.195 272.315L242.961 307.091L149.234 166.459Z" fill="#00BF62" fill-opacity="0.4"/>
<path d="M303.195 272.315L149.234 166.459L332.582 255.348L317.888 311.198L303.195 272.315Z" fill="#00BF62" fill-opacity="0.4"/>
<path d="M335.262 253.801L149.234 166.459L332.582 255.348L335.262 253.801Z" fill="white"/>
<path d="M303.195 272.315L149.234 166.459L300.787 273.706L303.195 272.315Z" fill="white"/>
</g>
</g>
<mask id="mask1_136_181" style="mask-type:luminance" maskUnits="userSpaceOnUse" x="169" y="188" width="239" height="147">
<path d="M261.626 188.237L169.24 238.829L244.376 334.121L324.626 323.538L407.626 220.083L261.626 188.237Z" fill="white"/>
</mask>
<g mask="url(#mask1_136_181)">
<path d="M317.888 311.198L149.234 166.459L303.195 272.315L317.888 311.198Z" fill="#111111"/>
<path d="M149.234 166.459L332.582 255.348L392.816 220.573L149.234 166.459Z" fill="#00BF62"/>
<path d="M149.234 166.459L303.195 272.315L242.961 307.091L149.234 166.459Z" fill="#00BF62"/>
<path d="M303.195 272.315L149.234 166.459L332.582 255.348L317.888 311.198L303.195 272.315Z" fill="#00BF62"/>
<path d="M335.262 253.801L149.234 166.459L332.582 255.348L335.262 253.801Z" fill="white"/>
<path d="M303.195 272.315L149.234 166.459L300.787 273.706L303.195 272.315Z" fill="white"/>
</g>
<defs>
<linearGradient id="paint0_linear_136_181" x1="175.46" y1="146.525" x2="175.448" y2="128.506" gradientUnits="userSpaceOnUse">
<stop stop-color="#C0BFF6"/>
<stop offset="0.2938" stop-color="#C5C4F7"/>
<stop offset="0.6399" stop-color="#D3D2F9"/>
<stop offset="1" stop-color="#E9E9FD"/>
</linearGradient>
<linearGradient id="paint1_linear_136_181" x1="219.042" y1="352.364" x2="110.961" y2="165.458" gradientUnits="userSpaceOnUse">
<stop stop-color="#C0BFF6"/>
<stop offset="0.2938" stop-color="#C5C4F7"/>
<stop offset="0.6399" stop-color="#D3D2F9"/>
<stop offset="1" stop-color="#E9E9FD"/>
</linearGradient>
</defs>
</svg>
