<svg width="450" height="402" viewBox="0 0 450 402" fill="none" xmlns="http://www.w3.org/2000/svg">
<g clip-path="url(#clip0_35_222)">
<path d="M252.731 112.287C252.731 112.287 249.858 150.995 233.75 160.131C233.75 160.131 285.469 151.199 298.187 131.829C310.904 112.459 252.731 112.287 252.731 112.287Z" fill="url(#paint0_linear_35_222)"/>
<path d="M201.217 226.497C169.347 235.227 161.817 232.783 156.138 241.326C155.485 242.306 152.155 247.319 152.821 253.751C153.353 258.877 156.208 262.833 158.004 264.572C168.922 275.141 198.964 262.211 216.169 248.07C219.92 244.987 229.985 236.717 227.958 230.842C227.127 228.435 224.547 227.239 222.696 226.411C214.512 222.75 206.023 225.18 201.217 226.497Z" fill="url(#paint1_linear_35_222)"/>
<path d="M102.819 12.2802H109.602V56.7927H102.819V12.2802Z" fill="url(#paint2_linear_35_222)"/>
<path d="M82.786 81.3808H129.633C133.088 81.3808 135.887 78.5811 135.887 75.1265V58.3837C135.887 54.9291 133.088 52.1294 129.633 52.1294H82.786C79.3314 52.1294 76.5317 54.9291 76.5317 58.3837V75.1265C76.5331 78.5811 79.3328 81.3808 82.786 81.3808Z" fill="url(#paint3_linear_35_222)"/>
<path d="M0.0152682 178.674C0.0152682 205.715 21.9379 227.638 48.9795 227.638H163.441C190.372 227.638 212.406 205.604 212.406 178.674V153.238C212.406 105.323 173.203 66.1196 125.287 66.1196H87.1325C39.2179 66.1196 0.013916 105.322 0.013916 153.238L0.0152682 178.674Z" fill="url(#paint4_linear_35_222)"/>
<path d="M33.4219 174.036C36.2009 175.41 39.3162 176.13 42.4815 176.13H169.938C173.103 176.13 176.219 175.41 178.998 174.036C185.824 170.662 189.676 163.848 188.712 156.859L188.641 156.351C185.375 132.675 163.933 114.473 137.645 113.105C126.522 112.526 114.85 112.227 102.675 112.298C93.1376 112.353 83.9189 112.633 75.0421 113.09C48.6541 114.449 27.0541 132.58 23.7753 156.345C23.7518 156.515 23.7282 156.687 23.7047 156.857C22.7424 163.848 26.5958 170.662 33.4219 174.036Z" fill="url(#paint5_linear_35_222)"/>
<path d="M139.802 170.913C126.528 170.913 115.768 160.153 115.768 146.879C115.768 133.605 126.528 122.845 139.802 122.845C153.076 122.845 163.836 133.605 163.836 146.879C163.836 160.153 153.076 170.913 139.802 170.913Z" fill="url(#paint6_radial_35_222)"/>
<path d="M139.802 164.13C130.275 164.13 122.551 156.406 122.551 146.879C122.551 137.351 130.275 129.628 139.802 129.628C149.329 129.628 157.053 137.351 157.053 146.879C157.053 156.406 149.329 164.13 139.802 164.13Z" fill="#EEFDFF"/>
<path d="M139.802 161.367C131.8 161.367 125.313 154.88 125.313 146.879C125.313 138.877 131.8 132.39 139.802 132.39C147.804 132.39 154.29 138.877 154.29 146.879C154.29 154.88 147.804 161.367 139.802 161.367Z" fill="url(#paint7_linear_35_222)"/>
<path d="M130.521 143.123C130.521 146.088 132.923 148.49 135.888 148.49C138.852 148.49 141.254 146.087 141.254 143.123C141.254 140.16 138.852 137.757 135.888 137.757C132.923 137.757 130.521 140.16 130.521 143.123Z" fill="#EEFDFF"/>
<path d="M141.944 160.132C140.761 160.132 139.802 159.174 139.802 157.99C139.802 156.808 140.761 155.848 141.944 155.848C143.126 155.848 144.086 156.808 144.086 157.99C144.086 159.174 143.126 160.132 141.944 160.132Z" fill="#EEFDFF"/>
<path d="M147.255 154.776C147.255 155.368 147.734 155.847 148.325 155.847C148.917 155.847 149.396 155.368 149.396 154.776C149.396 154.185 148.917 153.706 148.325 153.706C147.734 153.706 147.255 154.187 147.255 154.776Z" fill="#EEFDFF"/>
<path d="M74.8745 170.913C61.6007 170.913 50.8403 160.153 50.8403 146.879C50.8403 133.605 61.6007 122.845 74.8745 122.845C88.1481 122.845 98.9086 133.605 98.9086 146.879C98.9086 160.153 88.1481 170.913 74.8745 170.913Z" fill="url(#paint8_radial_35_222)"/>
<path d="M74.8745 164.13C65.3469 164.13 57.6235 156.406 57.6235 146.879C57.6235 137.351 65.3469 129.628 74.8745 129.628C84.4019 129.628 92.1254 137.351 92.1254 146.879C92.1254 156.406 84.4019 164.13 74.8745 164.13Z" fill="#EEFDFF"/>
<path d="M74.8744 161.367C66.8725 161.367 60.3857 154.88 60.3857 146.879C60.3857 138.877 66.8725 132.39 74.8744 132.39C82.8762 132.39 89.363 138.877 89.363 146.879C89.363 154.88 82.8762 161.367 74.8744 161.367Z" fill="url(#paint9_linear_35_222)"/>
<path d="M65.592 143.123C65.592 146.088 67.9957 148.49 70.9588 148.49C73.9219 148.49 76.327 146.087 76.327 143.123C76.327 140.16 73.9233 137.757 70.9588 137.757C67.9943 137.757 65.592 140.16 65.592 143.123Z" fill="#EEFDFF"/>
<path d="M77.0165 160.132C75.8335 160.132 74.8745 159.174 74.8745 157.99C74.8745 156.808 75.8335 155.848 77.0165 155.848C78.1994 155.848 79.1585 156.808 79.1585 157.99C79.1585 159.174 78.1994 160.132 77.0165 160.132Z" fill="#EEFDFF"/>
<path d="M82.3279 154.776C82.3279 155.368 82.807 155.847 83.3982 155.847C83.9894 155.847 84.4685 155.368 84.4685 154.776C84.4685 154.185 83.9894 153.706 83.3982 153.706C82.807 153.706 82.3279 154.187 82.3279 154.776Z" fill="#EEFDFF"/>
<path d="M97.5198 9.31288C97.5198 14.112 101.411 18.0041 106.211 18.0041C111.01 18.0041 114.901 14.1134 114.901 9.31288C114.901 4.51379 111.01 0.621643 106.211 0.621643C101.411 0.621643 97.5198 4.51242 97.5198 9.31288Z" fill="url(#paint10_linear_35_222)"/>
<path d="M100.169 5.92072C100.169 7.38426 101.355 8.56949 102.819 8.56949C104.282 8.56949 105.469 7.38288 105.469 5.92072C105.469 4.45718 104.282 3.27057 102.819 3.27057C101.355 3.27195 100.169 4.45718 100.169 5.92072Z" fill="white"/>
<path d="M31.3796 93.9851C31.2647 98.042 34.5767 102.895 38.3705 103.309C41.9262 103.698 44.7661 100.065 47.6945 96.3182C50.5815 92.6254 56.8939 83.138 54.3795 80.4546C51.0661 76.9169 31.6524 84.4132 31.3796 93.9851Z" fill="white"/>
<path d="M63.8653 78.5189C62.1974 78.5189 60.8455 77.1669 60.8455 75.4991C60.8455 73.8312 62.1974 72.4792 63.8653 72.4792C65.5331 72.4792 66.8852 73.8312 66.8852 75.4991C66.8852 77.1669 65.5331 78.5189 63.8653 78.5189Z" fill="white"/>
<path d="M31.8102 150.267C32.7794 150.951 39.535 137.188 57.6707 125.255C64.0454 121.06 70.3385 118.07 69.9647 117.201C69.5853 116.319 62.4974 117.96 56.8233 120.592C38.743 128.98 30.6582 149.454 31.8102 150.267Z" fill="white"/>
<path d="M78.2501 60.7889C78.4661 60.8194 78.6045 59.5497 79.6624 57.5877C79.6624 57.5877 80.1567 56.6695 80.7216 55.8914C82.5424 53.3852 88.715 53.4406 89.1996 53.4448C98.813 53.5278 104.994 52.9187 104.991 52.9769C104.99 53.0254 100.481 52.934 97.1778 52.8675C87.8579 52.6778 82.3056 52.1764 79.9255 54.6729C78.9382 55.7086 78.4412 57.0572 78.4412 57.0572C77.7682 58.8877 77.9925 60.7515 78.2501 60.7889Z" fill="white"/>
<path d="M80.2494 186.444C80.4848 188.747 82.4011 190.52 84.7051 190.742L116.543 193.812C118.846 194.033 121.066 192.661 121.738 190.446C122.037 189.461 122.267 188.446 122.423 187.402C122.466 187.114 122.39 186.821 122.21 186.589C122.03 186.36 121.764 186.214 121.474 186.185L81.3073 182.311C81.0206 182.283 80.7368 182.375 80.5194 182.563C80.302 182.751 80.1733 183.021 80.1608 183.308C80.1123 184.37 80.1442 185.417 80.2494 186.444Z" fill="#EEFDFF"/>
<path d="M80.248 186.447C81.2657 196.316 89.1124 204.43 99.3627 205.409C109.473 206.388 118.605 200.118 121.607 190.835C120.805 192.819 118.72 194.028 116.544 193.81L84.6982 190.745C82.397 190.516 80.489 188.748 80.248 186.447Z" fill="url(#paint11_linear_35_222)"/>
<path d="M30.0864 257.952C30.0864 258.245 30.0864 258.524 30.0989 258.791C30.2 261.462 30.8244 263.471 31.129 264.374C39.8923 291.146 45.1441 305.263 52.5075 316.684C53.7786 318.655 55.1147 320.549 56.552 322.406C58.4337 324.886 60.494 327.302 62.7841 329.796C67.8712 335.329 75.5655 337.834 78.0454 338.699C87.1132 341.904 95.126 341.319 100.454 341.37H101.383C106.725 341.319 114.724 341.904 123.792 338.699C126.271 337.834 133.978 335.329 139.053 329.796C153.043 314.572 158.422 301.918 170.708 264.374C171 263.51 171.586 261.64 171.726 259.135C171.763 258.409 171.777 257.685 171.738 256.96C171.471 252.471 169.653 248.069 166.421 244.051C160.888 237.158 152.342 233.381 143.503 233.342L100.911 233.164L59.0941 232.999C50.0637 232.96 41.3143 236.751 35.5792 243.732C32.8058 247.115 31.039 250.765 30.3897 254.53C30.301 255.064 30.2249 255.611 30.1737 256.145C30.1252 256.744 30.0864 257.342 30.0864 257.952Z" fill="url(#paint12_linear_35_222)"/>
<path d="M100.919 233.171L143.511 233.349C152.351 233.388 160.897 237.165 166.429 244.058C169.66 248.077 171.478 252.478 171.746 256.967C171.53 252.363 169.635 247.847 166.265 243.739C160.542 236.757 151.779 232.967 142.75 233.006L100.919 233.171Z" fill="url(#paint13_linear_35_222)"/>
<path d="M58.5871 295.92C59.2088 262.882 63.6797 256.348 57.0862 248.489C56.3288 247.586 52.4616 242.976 46.102 241.799C41.0343 240.862 36.4346 242.485 34.258 243.717C21.0377 251.207 24.9603 283.677 33.6696 304.175C35.5679 308.645 40.6619 320.634 46.8705 320.347C49.414 320.23 51.2902 318.092 52.6056 316.551C58.4279 309.731 58.493 300.9 58.5871 295.92Z" fill="url(#paint14_linear_35_222)"/>
<path d="M52.5088 316.684C53.7799 318.655 55.116 320.55 56.5533 322.406C57.0116 321.936 57.4185 321.465 57.7868 321.033C63.6119 314.216 63.6757 305.389 63.7643 300.405C64.3874 267.364 68.8639 260.839 62.2634 252.979C61.7802 252.395 60.012 250.296 57.1376 248.554C63.6494 256.388 59.2103 262.976 58.5872 295.916C58.4986 300.9 58.4225 309.727 52.6099 316.558C52.5725 316.595 52.5337 316.632 52.5088 316.684Z" fill="url(#paint15_linear_35_222)"/>
<path d="M33.865 268.408C34.0519 264.858 34.7179 262.247 36.0499 257.025C37.7918 250.193 39.9766 246.863 38.5573 245.544C37.6338 244.685 35.8145 245.265 35.4019 245.397C29.1573 247.389 27.2243 259.104 27.4929 266.436C27.6576 270.925 28.753 275.944 30.3979 276.166C30.6569 276.2 31.3021 276.167 31.7632 275.759C33.5992 274.137 33.7224 271.106 33.865 268.408Z" fill="white"/>
<path d="M29.5767 280.937C29.5767 281.653 30.1568 282.233 30.8727 282.233C31.5885 282.233 32.1687 281.653 32.1687 280.937C32.1687 280.221 31.5885 279.641 30.8727 279.641C30.1568 279.641 29.5767 280.221 29.5767 280.937Z" fill="white"/>
<path d="M102.819 401.046C65.2949 401.046 34.8757 388.592 34.8757 373.23C34.8757 357.868 65.2949 345.414 102.819 345.414C140.343 345.414 170.762 357.868 170.762 373.23C170.762 388.592 140.343 401.046 102.819 401.046Z" fill="url(#paint16_radial_35_222)"/>
<path d="M291.392 131.829H384.245C420.384 131.829 449.954 102.259 449.954 66.1195C449.954 29.9797 420.384 0.409851 384.245 0.409851H291.392C255.252 0.409851 225.683 29.9797 225.683 66.1195C225.683 102.259 255.251 131.829 291.392 131.829Z" fill="url(#paint17_linear_35_222)"/>
<path d="M254.204 74V71.216H256.94V74H254.204ZM251.012 74V57.032H254.204V74H251.012ZM256.94 74V71.216C257.036 71.216 257.108 71.248 257.156 71.312C257.22 71.376 257.268 71.472 257.3 71.6C257.348 71.728 257.38 71.88 257.396 72.056C257.412 72.216 257.42 72.4 257.42 72.608C257.42 72.816 257.412 73.008 257.396 73.184C257.38 73.36 257.348 73.512 257.3 73.64C257.268 73.752 257.22 73.84 257.156 73.904C257.108 73.968 257.036 74 256.94 74ZM262.674 74V71.216H265.194V74H262.674ZM256.938 74C256.841 74 256.769 73.968 256.721 73.904C256.657 73.84 256.609 73.752 256.577 73.64C256.529 73.512 256.497 73.36 256.481 73.184C256.465 73.008 256.457 72.816 256.457 72.608C256.457 72.32 256.473 72.08 256.505 71.888C256.537 71.68 256.593 71.52 256.673 71.408C256.737 71.28 256.825 71.216 256.938 71.216V74ZM256.938 74V71.216H261.33L259.458 72.776V61.952H262.674V74H256.938ZM265.194 74V71.216C265.29 71.216 265.37 71.248 265.434 71.312C265.498 71.376 265.546 71.472 265.578 71.6C265.61 71.728 265.634 71.88 265.65 72.056C265.666 72.216 265.674 72.4 265.674 72.608C265.674 72.816 265.666 73.008 265.65 73.184C265.634 73.36 265.61 73.512 265.578 73.64C265.546 73.752 265.498 73.84 265.434 73.904C265.37 73.968 265.29 74 265.194 74ZM259.458 59.744V57.008H262.674V59.744H259.458ZM272.196 74V71.216H275.196V74H272.196ZM275.196 74V71.216C275.276 71.216 275.348 71.248 275.412 71.312C275.476 71.376 275.524 71.472 275.556 71.6C275.588 71.728 275.612 71.88 275.628 72.056C275.66 72.216 275.676 72.4 275.676 72.608C275.676 72.816 275.66 73.008 275.628 73.184C275.612 73.36 275.588 73.512 275.556 73.64C275.524 73.752 275.476 73.84 275.412 73.904C275.364 73.968 275.292 74 275.196 74ZM265.188 74C265.091 74 265.019 73.968 264.971 73.904C264.907 73.84 264.859 73.752 264.827 73.64C264.779 73.512 264.747 73.36 264.731 73.184C264.715 73.008 264.707 72.816 264.707 72.608C264.707 72.32 264.723 72.08 264.755 71.888C264.787 71.68 264.843 71.52 264.923 71.408C264.987 71.28 265.075 71.216 265.188 71.216V74ZM265.188 74V71.216H270.876L269.004 72.776V61.952H272.196V74H265.188ZM266.892 59.744V57.008H269.988V59.744H266.892ZM271.26 59.744V57.008H274.356V59.744H271.26ZM281.123 74V71.216H283.643V74H281.123ZM275.195 74C275.099 74 275.027 73.968 274.979 73.904C274.915 73.84 274.867 73.752 274.835 73.64C274.787 73.512 274.755 73.36 274.739 73.184C274.723 73.008 274.715 72.816 274.715 72.608C274.715 72.32 274.731 72.08 274.763 71.888C274.795 71.68 274.851 71.52 274.931 71.408C274.995 71.28 275.083 71.216 275.195 71.216V74ZM277.907 74V57.032H281.123V74H277.907ZM275.195 74V71.216H277.907V74H275.195ZM283.643 74V71.216C283.739 71.216 283.819 71.248 283.883 71.312C283.947 71.376 283.995 71.472 284.027 71.6C284.059 71.728 284.083 71.88 284.099 72.056C284.115 72.216 284.123 72.4 284.123 72.608C284.123 72.816 284.115 73.008 284.099 73.184C284.083 73.36 284.059 73.512 284.027 73.64C283.995 73.752 283.947 73.84 283.883 73.904C283.819 73.968 283.739 74 283.643 74ZM283.633 74V71.216H293.953L292.873 72.104V67.664C292.873 66.704 292.569 65.976 291.961 65.48C291.369 64.984 290.425 64.736 289.129 64.736C288.761 64.736 288.257 64.768 287.617 64.832C286.977 64.88 286.281 64.96 285.529 65.072L285.217 62.528C285.905 62.368 286.601 62.232 287.305 62.12C288.025 62.008 288.729 61.952 289.417 61.952C290.729 61.952 291.881 62.184 292.873 62.648C293.865 63.096 294.641 63.744 295.201 64.592C295.777 65.44 296.065 66.464 296.065 67.664V74H283.633ZM283.633 74C283.537 74 283.465 73.968 283.417 73.904C283.353 73.84 283.305 73.752 283.273 73.64C283.225 73.512 283.193 73.36 283.177 73.184C283.161 73.008 283.153 72.816 283.153 72.608C283.153 72.32 283.169 72.08 283.201 71.888C283.233 71.68 283.289 71.52 283.369 71.408C283.433 71.28 283.521 71.216 283.633 71.216V74ZM298.42 79.952C298.212 79.952 297.988 79.944 297.748 79.928C297.508 79.912 297.26 79.888 297.004 79.856L297.124 77.12C297.38 77.136 297.62 77.152 297.844 77.168C298.084 77.184 298.26 77.192 298.372 77.192C298.996 77.192 299.492 76.944 299.86 76.448C300.244 75.952 300.436 75.256 300.436 74.36V61.952H303.652V74.36C303.652 75.448 303.428 76.416 302.98 77.264C302.548 78.112 301.94 78.768 301.156 79.232C300.372 79.712 299.46 79.952 298.42 79.952ZM312.652 74V57.032H315.844V74H312.652ZM312.796 55.112C312.492 54.744 312.26 54.392 312.1 54.056C311.94 53.72 311.86 53.36 311.86 52.976C311.86 52.432 312.004 51.944 312.292 51.512C312.58 51.064 312.956 50.72 313.42 50.48C313.884 50.224 314.396 50.096 314.956 50.096C315.26 50.096 315.572 50.136 315.892 50.216C316.212 50.296 316.484 50.416 316.708 50.576L315.892 52.04C315.748 51.96 315.604 51.912 315.46 51.896C315.332 51.864 315.196 51.848 315.052 51.848C314.668 51.848 314.372 51.952 314.164 52.16C313.956 52.352 313.852 52.616 313.852 52.952C313.852 53.144 313.892 53.328 313.972 53.504C314.052 53.68 314.172 53.872 314.332 54.08L312.796 55.112ZM311.332 55.304V53.552H317.14V55.304H311.332ZM328.72 74V71.216H331.24V74H328.72ZM318.976 74V71.216H327.688L325.504 73.112V69.08C325.504 67.944 325.384 67.064 325.144 66.44C324.92 65.816 324.536 65.376 323.992 65.12C323.464 64.864 322.736 64.736 321.808 64.736H319.864V61.952H321.808C323.28 61.952 324.528 62.192 325.552 62.672C326.592 63.152 327.376 63.92 327.904 64.976C328.448 66.016 328.72 67.384 328.72 69.08V74H318.976ZM331.24 74V71.216C331.336 71.216 331.416 71.248 331.48 71.312C331.544 71.376 331.592 71.472 331.624 71.6C331.656 71.728 331.68 71.88 331.696 72.056C331.712 72.216 331.72 72.4 331.72 72.608C331.72 72.816 331.712 73.008 331.696 73.184C331.68 73.36 331.656 73.512 331.624 73.64C331.592 73.752 331.544 73.84 331.48 73.904C331.416 73.968 331.336 74 331.24 74ZM336.97 74V71.216H339.49V74H336.97ZM331.234 74C331.138 74 331.066 73.968 331.018 73.904C330.954 73.84 330.906 73.752 330.874 73.64C330.826 73.512 330.794 73.36 330.778 73.184C330.762 73.008 330.754 72.816 330.754 72.608C330.754 72.32 330.77 72.08 330.802 71.888C330.834 71.68 330.89 71.52 330.97 71.408C331.034 71.28 331.122 71.216 331.234 71.216V74ZM331.234 74V71.216H335.626L333.754 72.776V61.952H336.97V74H331.234ZM339.49 74V71.216C339.586 71.216 339.666 71.248 339.73 71.312C339.794 71.376 339.842 71.472 339.874 71.6C339.906 71.728 339.93 71.88 339.946 72.056C339.962 72.216 339.97 72.4 339.97 72.608C339.97 72.816 339.962 73.008 339.946 73.184C339.93 73.36 339.906 73.512 339.874 73.64C339.842 73.752 339.794 73.84 339.73 73.904C339.666 73.968 339.586 74 339.49 74ZM333.754 79.112V76.376H336.97V79.112H333.754ZM345.22 74V71.216H347.74V74H345.22ZM339.484 74C339.388 74 339.316 73.968 339.268 73.904C339.204 73.84 339.156 73.752 339.124 73.64C339.076 73.512 339.044 73.36 339.028 73.184C339.012 73.008 339.004 72.816 339.004 72.608C339.004 72.32 339.02 72.08 339.052 71.888C339.084 71.68 339.14 71.52 339.22 71.408C339.284 71.28 339.372 71.216 339.484 71.216V74ZM339.484 74V71.216H343.876L342.004 72.776V61.952H345.22V74H339.484ZM347.74 74V71.216C347.836 71.216 347.916 71.248 347.98 71.312C348.044 71.376 348.092 71.472 348.124 71.6C348.156 71.728 348.18 71.88 348.196 72.056C348.212 72.216 348.22 72.4 348.22 72.608C348.22 72.816 348.212 73.008 348.196 73.184C348.18 73.36 348.156 73.512 348.124 73.64C348.092 73.752 348.044 73.84 347.98 73.904C347.916 73.968 347.836 74 347.74 74ZM342.004 59.744V57.008H345.22V59.744H342.004ZM350.446 74V57.032H353.662V74H350.446ZM347.734 74V71.216H350.446V74H347.734ZM347.734 74C347.638 74 347.566 73.968 347.518 73.904C347.454 73.84 347.406 73.752 347.374 73.64C347.326 73.512 347.294 73.36 347.278 73.184C347.262 73.008 347.254 72.816 347.254 72.608C347.254 72.32 347.27 72.08 347.302 71.888C347.334 71.68 347.39 71.52 347.47 71.408C347.534 71.28 347.622 71.216 347.734 71.216V74ZM365.93 74V71.216H368.666V74H365.93ZM362.738 74V57.032H365.93V74H362.738ZM368.666 74V71.216C368.762 71.216 368.834 71.248 368.882 71.312C368.946 71.376 368.994 71.472 369.026 71.6C369.074 71.728 369.106 71.88 369.122 72.056C369.138 72.216 369.146 72.4 369.146 72.608C369.146 72.816 369.138 73.008 369.122 73.184C369.106 73.36 369.074 73.512 369.026 73.64C368.994 73.752 368.946 73.84 368.882 73.904C368.834 73.968 368.762 74 368.666 74ZM374.4 74V71.216H376.92V74H374.4ZM368.664 74C368.568 74 368.496 73.968 368.448 73.904C368.384 73.84 368.336 73.752 368.304 73.64C368.256 73.512 368.224 73.36 368.208 73.184C368.192 73.008 368.184 72.816 368.184 72.608C368.184 72.32 368.2 72.08 368.232 71.888C368.264 71.68 368.32 71.52 368.4 71.408C368.464 71.28 368.552 71.216 368.664 71.216V74ZM368.664 74V71.216H373.056L371.184 72.776V61.952H374.4V74H368.664ZM376.92 74V71.216C377.016 71.216 377.096 71.248 377.16 71.312C377.224 71.376 377.272 71.472 377.304 71.6C377.336 71.728 377.36 71.88 377.376 72.056C377.392 72.216 377.4 72.4 377.4 72.608C377.4 72.816 377.392 73.008 377.376 73.184C377.36 73.36 377.336 73.512 377.304 73.64C377.272 73.752 377.224 73.84 377.16 73.904C377.096 73.968 377.016 74 376.92 74ZM371.184 59.744V57.008H374.4V59.744H371.184ZM376.914 74V71.216H381.306L379.434 72.776V61.952H382.65V74H376.914ZM376.914 74C376.818 74 376.746 73.968 376.698 73.904C376.634 73.84 376.586 73.752 376.554 73.64C376.506 73.512 376.474 73.36 376.458 73.184C376.442 73.008 376.434 72.816 376.434 72.608C376.434 72.32 376.45 72.08 376.482 71.888C376.514 71.68 376.57 71.52 376.65 71.408C376.714 71.28 376.802 71.216 376.914 71.216V74ZM379.434 79.112V76.376H382.65V79.112H379.434ZM394.969 74V71.216H397.705V74H394.969ZM391.777 74V57.032H394.969V74H391.777ZM397.705 74V71.216C397.801 71.216 397.873 71.248 397.921 71.312C397.985 71.376 398.033 71.472 398.065 71.6C398.113 71.728 398.145 71.88 398.161 72.056C398.177 72.216 398.185 72.4 398.185 72.608C398.185 72.816 398.177 73.008 398.161 73.184C398.145 73.36 398.113 73.512 398.065 73.64C398.033 73.752 397.985 73.84 397.921 73.904C397.873 73.968 397.801 74 397.705 74ZM404.711 74V71.216H407.711V74H404.711ZM407.711 74V71.216C407.791 71.216 407.863 71.248 407.927 71.312C407.991 71.376 408.039 71.472 408.071 71.6C408.103 71.728 408.127 71.88 408.143 72.056C408.175 72.216 408.191 72.4 408.191 72.608C408.191 72.816 408.175 73.008 408.143 73.184C408.127 73.36 408.103 73.512 408.071 73.64C408.039 73.752 407.991 73.84 407.927 73.904C407.879 73.968 407.807 74 407.711 74ZM397.703 74C397.607 74 397.535 73.968 397.487 73.904C397.423 73.84 397.375 73.752 397.343 73.64C397.295 73.512 397.263 73.36 397.247 73.184C397.231 73.008 397.223 72.816 397.223 72.608C397.223 72.32 397.239 72.08 397.271 71.888C397.303 71.68 397.359 71.52 397.439 71.408C397.503 71.28 397.591 71.216 397.703 71.216V74ZM397.703 74V71.216H403.391L401.519 72.776V61.952H404.711V74H397.703ZM398.567 79.112V76.376H401.663V79.112H398.567ZM402.935 79.112V76.376H406.031V79.112H402.935ZM407.711 74V71.216H424.367L422.135 73.016V68.912C422.135 67.536 421.951 66.432 421.583 65.6C421.231 64.768 420.663 64.168 419.879 63.8C419.111 63.416 418.111 63.224 416.879 63.224C416.287 63.224 415.639 63.248 414.935 63.296C414.231 63.328 413.527 63.376 412.823 63.44C412.135 63.488 411.511 63.544 410.951 63.608L410.615 61.448C411.159 61.304 411.791 61.152 412.511 60.992C413.231 60.832 413.983 60.696 414.767 60.584C415.567 60.472 416.343 60.416 417.095 60.416C418.135 60.416 419.143 60.56 420.119 60.848C421.111 61.12 421.999 61.584 422.783 62.24C423.567 62.88 424.191 63.744 424.655 64.832C425.119 65.92 425.351 67.28 425.351 68.912V74H407.711ZM410.183 71.216V70.016C410.183 69.248 410.375 68.536 410.759 67.88C411.159 67.208 411.703 66.68 412.391 66.296C413.079 65.896 413.847 65.696 414.695 65.696C415.543 65.696 416.303 65.896 416.975 66.296C417.647 66.68 418.175 67.2 418.559 67.856C418.959 68.512 419.159 69.232 419.159 70.016V71.216H416.615V70.016C416.615 69.616 416.527 69.264 416.351 68.96C416.175 68.64 415.943 68.384 415.655 68.192C415.367 68 415.047 67.904 414.695 67.904C414.343 67.904 414.015 68 413.711 68.192C413.423 68.384 413.191 68.64 413.015 68.96C412.839 69.264 412.751 69.616 412.751 70.016V71.216H410.183ZM407.711 74C407.615 74 407.543 73.968 407.495 73.904C407.431 73.84 407.383 73.752 407.351 73.64C407.303 73.512 407.271 73.36 407.255 73.184C407.239 73.008 407.231 72.816 407.231 72.608C407.231 72.32 407.247 72.08 407.279 71.888C407.311 71.68 407.367 71.52 407.447 71.408C407.511 71.28 407.599 71.216 407.711 71.216V74Z" fill="white"/>
</g>
<defs>
<linearGradient id="paint0_linear_35_222" x1="279.744" y1="109.1" x2="261.938" y2="157.428" gradientUnits="userSpaceOnUse">
<stop stop-color="#ABF0A5"/>
<stop offset="1" stop-color="#DEFA8E"/>
</linearGradient>
<linearGradient id="paint1_linear_35_222" x1="183.079" y1="246.582" x2="59.5107" y2="342.617" gradientUnits="userSpaceOnUse">
<stop offset="0.0397" stop-color="#06BED8"/>
<stop offset="1" stop-color="#DEFA8E"/>
</linearGradient>
<linearGradient id="paint2_linear_35_222" x1="120.034" y1="36.5523" x2="99.6853" y2="33.5848" gradientUnits="userSpaceOnUse">
<stop offset="0.0397" stop-color="#06CFF1"/>
<stop offset="1" stop-color="#DEFA8E"/>
</linearGradient>
<linearGradient id="paint3_linear_35_222" x1="125.224" y1="88.2227" x2="89.1123" y2="47.4513" gradientUnits="userSpaceOnUse">
<stop offset="0.0397" stop-color="#06CFF1"/>
<stop offset="1" stop-color="#DEFA8E"/>
</linearGradient>
<linearGradient id="paint4_linear_35_222" x1="177.529" y1="229.447" x2="34.4315" y2="86.3491" gradientUnits="userSpaceOnUse">
<stop offset="0.0397" stop-color="#06CFF1"/>
<stop offset="1" stop-color="#DEFA8E"/>
</linearGradient>
<linearGradient id="paint5_linear_35_222" x1="106.587" y1="175.924" x2="105.315" y2="118.693" gradientUnits="userSpaceOnUse">
<stop stop-color="#030D14"/>
<stop offset="1" stop-color="#0B2F45"/>
</linearGradient>
<radialGradient id="paint6_radial_35_222" cx="0" cy="0" r="1" gradientUnits="userSpaceOnUse" gradientTransform="translate(139.802 146.879) rotate(180) scale(23.7855)">
<stop offset="0.1296" stop-color="#3280FC"/>
<stop offset="1"/>
</radialGradient>
<linearGradient id="paint7_linear_35_222" x1="154.292" y1="146.879" x2="125.313" y2="146.879" gradientUnits="userSpaceOnUse">
<stop stop-color="#030D14"/>
<stop offset="1" stop-color="#0B2F45"/>
</linearGradient>
<radialGradient id="paint8_radial_35_222" cx="0" cy="0" r="1" gradientUnits="userSpaceOnUse" gradientTransform="translate(74.8748 146.879) rotate(180) scale(23.7855 23.7855)">
<stop offset="0.1296" stop-color="#3280FC"/>
<stop offset="1"/>
</radialGradient>
<linearGradient id="paint9_linear_35_222" x1="89.3638" y1="146.879" x2="60.3855" y2="146.879" gradientUnits="userSpaceOnUse">
<stop stop-color="#030D14"/>
<stop offset="1" stop-color="#0B2F45"/>
</linearGradient>
<linearGradient id="paint10_linear_35_222" x1="124.505" y1="11.9802" x2="97.5749" y2="8.05288" gradientUnits="userSpaceOnUse">
<stop offset="0.0397" stop-color="#06CFF1"/>
<stop offset="1" stop-color="#DEFA8E"/>
</linearGradient>
<linearGradient id="paint11_linear_35_222" x1="107.08" y1="198.152" x2="65.648" y2="156.72" gradientUnits="userSpaceOnUse">
<stop offset="0.0714" stop-color="#0DA9AB"/>
<stop offset="1" stop-color="#DEFA8E"/>
</linearGradient>
<linearGradient id="paint12_linear_35_222" x1="146.21" y1="323.881" x2="36.4372" y2="195.695" gradientUnits="userSpaceOnUse">
<stop offset="0.0397" stop-color="#06CFF1"/>
<stop offset="0.0408" stop-color="#06CFF1"/>
<stop offset="0.1607" stop-color="#37D9DB"/>
<stop offset="0.2745" stop-color="#5DE0CA"/>
<stop offset="0.3793" stop-color="#78E6BD"/>
<stop offset="0.4719" stop-color="#88E9B6"/>
<stop offset="0.5423" stop-color="#8EEAB3"/>
<stop offset="0.8004" stop-color="#B9F39F"/>
<stop offset="1" stop-color="#DEFA8E"/>
</linearGradient>
<linearGradient id="paint13_linear_35_222" x1="152.025" y1="259.975" x2="86.012" y2="182.888" gradientUnits="userSpaceOnUse">
<stop offset="0.0397" stop-color="#06CFF1"/>
<stop offset="1" stop-color="#DEFA8E"/>
</linearGradient>
<linearGradient id="paint14_linear_35_222" x1="10.1859" y1="304.74" x2="92.3756" y2="244.628" gradientUnits="userSpaceOnUse">
<stop offset="0.0397" stop-color="#06CFF1"/>
<stop offset="0.0734" stop-color="#0FD1ED"/>
<stop offset="0.4151" stop-color="#67E2C5"/>
<stop offset="0.6937" stop-color="#A7EFA7"/>
<stop offset="0.8955" stop-color="#CFF795"/>
<stop offset="1" stop-color="#DEFA8E"/>
</linearGradient>
<linearGradient id="paint15_linear_35_222" x1="82.6168" y1="298.911" x2="24.3687" y2="268.556" gradientUnits="userSpaceOnUse">
<stop offset="0.0397" stop-color="#06BED8"/>
<stop offset="1" stop-color="#DEFA8E"/>
</linearGradient>
<radialGradient id="paint16_radial_35_222" cx="0" cy="0" r="1" gradientUnits="userSpaceOnUse" gradientTransform="translate(102.819 373.23) rotate(180) scale(67.9429 27.815)">
<stop stop-color="#BCD7D6"/>
<stop offset="1" stop-color="white"/>
</radialGradient>
<linearGradient id="paint17_linear_35_222" x1="449.954" y1="66.1192" x2="225.683" y2="66.1192" gradientUnits="userSpaceOnUse">
<stop stop-color="#06CFF1"/>
<stop offset="1" stop-color="#DEFA8E"/>
</linearGradient>
<clipPath id="clip0_35_222">
<rect width="450" height="401.538" fill="white"/>
</clipPath>
</defs>
</svg>
