<svg width="450" height="402" viewBox="0 0 450 402" fill="none" xmlns="http://www.w3.org/2000/svg">
<g clip-path="url(#clip0_35_222)">
<path d="M252.731 112.287C252.731 112.287 249.858 150.995 233.75 160.131C233.75 160.131 285.469 151.199 298.187 131.829C310.904 112.459 252.731 112.287 252.731 112.287Z" fill="url(#paint0_linear_35_222)"/>
<path d="M201.217 226.497C169.347 235.227 161.817 232.783 156.138 241.326C155.485 242.306 152.155 247.319 152.821 253.751C153.353 258.877 156.208 262.833 158.004 264.572C168.922 275.141 198.964 262.211 216.169 248.07C219.92 244.987 229.985 236.717 227.958 230.842C227.127 228.435 224.547 227.239 222.696 226.411C214.512 222.75 206.023 225.18 201.217 226.497Z" fill="url(#paint1_linear_35_222)"/>
<path d="M102.819 12.2802H109.602V56.7927H102.819V12.2802Z" fill="url(#paint2_linear_35_222)"/>
<path d="M82.786 81.3808H129.633C133.088 81.3808 135.887 78.5811 135.887 75.1265V58.3837C135.887 54.9291 133.088 52.1294 129.633 52.1294H82.786C79.3314 52.1294 76.5317 54.9291 76.5317 58.3837V75.1265C76.5331 78.5811 79.3328 81.3808 82.786 81.3808Z" fill="url(#paint3_linear_35_222)"/>
<path d="M0.0152682 178.674C0.0152682 205.715 21.9379 227.638 48.9795 227.638H163.441C190.372 227.638 212.406 205.604 212.406 178.674V153.238C212.406 105.323 173.203 66.1196 125.287 66.1196H87.1325C39.2179 66.1196 0.013916 105.322 0.013916 153.238L0.0152682 178.674Z" fill="url(#paint4_linear_35_222)"/>
<path d="M33.4219 174.036C36.2009 175.41 39.3162 176.13 42.4815 176.13H169.938C173.103 176.13 176.219 175.41 178.998 174.036C185.824 170.662 189.676 163.848 188.712 156.859L188.641 156.351C185.375 132.675 163.933 114.473 137.645 113.105C126.522 112.526 114.85 112.227 102.675 112.298C93.1376 112.353 83.9189 112.633 75.0421 113.09C48.6541 114.449 27.0541 132.58 23.7753 156.345C23.7518 156.515 23.7282 156.687 23.7047 156.857C22.7424 163.848 26.5958 170.662 33.4219 174.036Z" fill="url(#paint5_linear_35_222)"/>
<path d="M139.802 170.913C126.528 170.913 115.768 160.153 115.768 146.879C115.768 133.605 126.528 122.845 139.802 122.845C153.076 122.845 163.836 133.605 163.836 146.879C163.836 160.153 153.076 170.913 139.802 170.913Z" fill="url(#paint6_radial_35_222)"/>
<path d="M139.802 164.13C130.275 164.13 122.551 156.406 122.551 146.879C122.551 137.351 130.275 129.628 139.802 129.628C149.329 129.628 157.053 137.351 157.053 146.879C157.053 156.406 149.329 164.13 139.802 164.13Z" fill="#EEFDFF"/>
<path d="M139.802 161.367C131.8 161.367 125.313 154.88 125.313 146.879C125.313 138.877 131.8 132.39 139.802 132.39C147.804 132.39 154.29 138.877 154.29 146.879C154.29 154.88 147.804 161.367 139.802 161.367Z" fill="url(#paint7_linear_35_222)"/>
<path d="M130.521 143.123C130.521 146.088 132.923 148.49 135.888 148.49C138.852 148.49 141.254 146.087 141.254 143.123C141.254 140.16 138.852 137.757 135.888 137.757C132.923 137.757 130.521 140.16 130.521 143.123Z" fill="#EEFDFF"/>
<path d="M141.944 160.132C140.761 160.132 139.802 159.174 139.802 157.99C139.802 156.808 140.761 155.848 141.944 155.848C143.126 155.848 144.086 156.808 144.086 157.99C144.086 159.174 143.126 160.132 141.944 160.132Z" fill="#EEFDFF"/>
<path d="M147.255 154.776C147.255 155.368 147.734 155.847 148.325 155.847C148.917 155.847 149.396 155.368 149.396 154.776C149.396 154.185 148.917 153.706 148.325 153.706C147.734 153.706 147.255 154.187 147.255 154.776Z" fill="#EEFDFF"/>
<path d="M74.8745 170.913C61.6007 170.913 50.8403 160.153 50.8403 146.879C50.8403 133.605 61.6007 122.845 74.8745 122.845C88.1481 122.845 98.9086 133.605 98.9086 146.879C98.9086 160.153 88.1481 170.913 74.8745 170.913Z" fill="url(#paint8_radial_35_222)"/>
<path d="M74.8745 164.13C65.3469 164.13 57.6235 156.406 57.6235 146.879C57.6235 137.351 65.3469 129.628 74.8745 129.628C84.4019 129.628 92.1254 137.351 92.1254 146.879C92.1254 156.406 84.4019 164.13 74.8745 164.13Z" fill="#EEFDFF"/>
<path d="M74.8744 161.367C66.8725 161.367 60.3857 154.88 60.3857 146.879C60.3857 138.877 66.8725 132.39 74.8744 132.39C82.8762 132.39 89.363 138.877 89.363 146.879C89.363 154.88 82.8762 161.367 74.8744 161.367Z" fill="url(#paint9_linear_35_222)"/>
<path d="M65.592 143.123C65.592 146.088 67.9957 148.49 70.9588 148.49C73.9219 148.49 76.327 146.087 76.327 143.123C76.327 140.16 73.9233 137.757 70.9588 137.757C67.9943 137.757 65.592 140.16 65.592 143.123Z" fill="#EEFDFF"/>
<path d="M77.0165 160.132C75.8335 160.132 74.8745 159.174 74.8745 157.99C74.8745 156.808 75.8335 155.848 77.0165 155.848C78.1994 155.848 79.1585 156.808 79.1585 157.99C79.1585 159.174 78.1994 160.132 77.0165 160.132Z" fill="#EEFDFF"/>
<path d="M82.3279 154.776C82.3279 155.368 82.807 155.847 83.3982 155.847C83.9894 155.847 84.4685 155.368 84.4685 154.776C84.4685 154.185 83.9894 153.706 83.3982 153.706C82.807 153.706 82.3279 154.187 82.3279 154.776Z" fill="#EEFDFF"/>
<path d="M97.5198 9.31288C97.5198 14.112 101.411 18.0041 106.211 18.0041C111.01 18.0041 114.901 14.1134 114.901 9.31288C114.901 4.51379 111.01 0.621643 106.211 0.621643C101.411 0.621643 97.5198 4.51242 97.5198 9.31288Z" fill="url(#paint10_linear_35_222)"/>
<path d="M100.169 5.92072C100.169 7.38426 101.355 8.56949 102.819 8.56949C104.282 8.56949 105.469 7.38288 105.469 5.92072C105.469 4.45718 104.282 3.27057 102.819 3.27057C101.355 3.27195 100.169 4.45718 100.169 5.92072Z" fill="white"/>
<path d="M31.3796 93.9851C31.2647 98.042 34.5767 102.895 38.3705 103.309C41.9262 103.698 44.7661 100.065 47.6945 96.3182C50.5815 92.6254 56.8939 83.138 54.3795 80.4546C51.0661 76.9169 31.6524 84.4132 31.3796 93.9851Z" fill="white"/>
<path d="M63.8653 78.5189C62.1974 78.5189 60.8455 77.1669 60.8455 75.4991C60.8455 73.8312 62.1974 72.4792 63.8653 72.4792C65.5331 72.4792 66.8852 73.8312 66.8852 75.4991C66.8852 77.1669 65.5331 78.5189 63.8653 78.5189Z" fill="white"/>
<path d="M31.8102 150.267C32.7794 150.951 39.535 137.188 57.6707 125.255C64.0454 121.06 70.3385 118.07 69.9647 117.201C69.5853 116.319 62.4974 117.96 56.8233 120.592C38.743 128.98 30.6582 149.454 31.8102 150.267Z" fill="white"/>
<path d="M78.2501 60.7889C78.4661 60.8194 78.6045 59.5497 79.6624 57.5877C79.6624 57.5877 80.1567 56.6695 80.7216 55.8914C82.5424 53.3852 88.715 53.4406 89.1996 53.4448C98.813 53.5278 104.994 52.9187 104.991 52.9769C104.99 53.0254 100.481 52.934 97.1778 52.8675C87.8579 52.6778 82.3056 52.1764 79.9255 54.6729C78.9382 55.7086 78.4412 57.0572 78.4412 57.0572C77.7682 58.8877 77.9925 60.7515 78.2501 60.7889Z" fill="white"/>
<path d="M80.2494 186.444C80.4848 188.747 82.4011 190.52 84.7051 190.742L116.543 193.812C118.846 194.033 121.066 192.661 121.738 190.446C122.037 189.461 122.267 188.446 122.423 187.402C122.466 187.114 122.39 186.821 122.21 186.589C122.03 186.36 121.764 186.214 121.474 186.185L81.3073 182.311C81.0206 182.283 80.7368 182.375 80.5194 182.563C80.302 182.751 80.1733 183.021 80.1608 183.308C80.1123 184.37 80.1442 185.417 80.2494 186.444Z" fill="#EEFDFF"/>
<path d="M80.248 186.447C81.2657 196.316 89.1124 204.43 99.3627 205.409C109.473 206.388 118.605 200.118 121.607 190.835C120.805 192.819 118.72 194.028 116.544 193.81L84.6982 190.745C82.397 190.516 80.489 188.748 80.248 186.447Z" fill="url(#paint11_linear_35_222)"/>
<path d="M30.0864 257.952C30.0864 258.245 30.0864 258.524 30.0989 258.791C30.2 261.462 30.8244 263.471 31.129 264.374C39.8923 291.146 45.1441 305.263 52.5075 316.684C53.7786 318.655 55.1147 320.549 56.552 322.406C58.4337 324.886 60.494 327.302 62.7841 329.796C67.8712 335.329 75.5655 337.834 78.0454 338.699C87.1132 341.904 95.126 341.319 100.454 341.37H101.383C106.725 341.319 114.724 341.904 123.792 338.699C126.271 337.834 133.978 335.329 139.053 329.796C153.043 314.572 158.422 301.918 170.708 264.374C171 263.51 171.586 261.64 171.726 259.135C171.763 258.409 171.777 257.685 171.738 256.96C171.471 252.471 169.653 248.069 166.421 244.051C160.888 237.158 152.342 233.381 143.503 233.342L100.911 233.164L59.0941 232.999C50.0637 232.96 41.3143 236.751 35.5792 243.732C32.8058 247.115 31.039 250.765 30.3897 254.53C30.301 255.064 30.2249 255.611 30.1737 256.145C30.1252 256.744 30.0864 257.342 30.0864 257.952Z" fill="url(#paint12_linear_35_222)"/>
<path d="M100.919 233.171L143.511 233.349C152.351 233.388 160.897 237.165 166.429 244.058C169.66 248.077 171.478 252.478 171.746 256.967C171.53 252.363 169.635 247.847 166.265 243.739C160.542 236.757 151.779 232.967 142.75 233.006L100.919 233.171Z" fill="url(#paint13_linear_35_222)"/>
<path d="M58.5871 295.92C59.2088 262.882 63.6797 256.348 57.0862 248.489C56.3288 247.586 52.4616 242.976 46.102 241.799C41.0343 240.862 36.4346 242.485 34.258 243.717C21.0377 251.207 24.9603 283.677 33.6696 304.175C35.5679 308.645 40.6619 320.634 46.8705 320.347C49.414 320.23 51.2902 318.092 52.6056 316.551C58.4279 309.731 58.493 300.9 58.5871 295.92Z" fill="url(#paint14_linear_35_222)"/>
<path d="M52.5088 316.684C53.7799 318.655 55.116 320.55 56.5533 322.406C57.0116 321.936 57.4185 321.465 57.7868 321.033C63.6119 314.216 63.6757 305.389 63.7643 300.405C64.3874 267.364 68.8639 260.839 62.2634 252.979C61.7802 252.395 60.012 250.296 57.1376 248.554C63.6494 256.388 59.2103 262.976 58.5872 295.916C58.4986 300.9 58.4225 309.727 52.6099 316.558C52.5725 316.595 52.5337 316.632 52.5088 316.684Z" fill="url(#paint15_linear_35_222)"/>
<path d="M33.865 268.408C34.0519 264.858 34.7179 262.247 36.0499 257.025C37.7918 250.193 39.9766 246.863 38.5573 245.544C37.6338 244.685 35.8145 245.265 35.4019 245.397C29.1573 247.389 27.2243 259.104 27.4929 266.436C27.6576 270.925 28.753 275.944 30.3979 276.166C30.6569 276.2 31.3021 276.167 31.7632 275.759C33.5992 274.137 33.7224 271.106 33.865 268.408Z" fill="white"/>
<path d="M29.5767 280.937C29.5767 281.653 30.1568 282.233 30.8727 282.233C31.5885 282.233 32.1687 281.653 32.1687 280.937C32.1687 280.221 31.5885 279.641 30.8727 279.641C30.1568 279.641 29.5767 280.221 29.5767 280.937Z" fill="white"/>
<path d="M102.819 401.046C65.2949 401.046 34.8757 388.592 34.8757 373.23C34.8757 357.868 65.2949 345.414 102.819 345.414C140.343 345.414 170.762 357.868 170.762 373.23C170.762 388.592 140.343 401.046 102.819 401.046Z" fill="url(#paint16_radial_35_222)"/>
<path d="M291.392 131.829H384.245C420.384 131.829 449.954 102.259 449.954 66.1195C449.954 29.9797 420.384 0.409851 384.245 0.409851H291.392C255.252 0.409851 225.683 29.9797 225.683 66.1195C225.683 102.259 255.251 131.829 291.392 131.829Z" fill="url(#paint17_linear_35_222)"/>
<path d="M249.303 79.952C248.263 79.952 247.295 79.8 246.399 79.496C245.519 79.208 244.751 78.8 244.095 78.272C243.439 77.76 242.919 77.144 242.535 76.424C242.167 75.72 241.983 74.952 241.983 74.12C241.983 73.816 242.007 73.424 242.055 72.944C242.103 72.464 242.167 71.912 242.247 71.288C242.343 70.664 242.447 70 242.559 69.296L245.727 69.728C245.567 70.736 245.439 71.632 245.343 72.416C245.247 73.2 245.199 73.752 245.199 74.072C245.199 74.68 245.367 75.216 245.703 75.68C246.039 76.144 246.511 76.504 247.119 76.76C247.743 77.032 248.471 77.168 249.303 77.168H256.095C257.135 77.168 257.911 76.904 258.423 76.376C258.935 75.848 259.191 75.08 259.191 74.072V73.16H262.383V74.072C262.383 75.224 262.127 76.24 261.615 77.12C261.103 78 260.375 78.688 259.431 79.184C258.503 79.696 257.391 79.952 256.095 79.952H249.303ZM258.135 74C257.399 74 256.687 73.92 255.999 73.76C255.327 73.6 254.687 73.312 254.079 72.896L255.903 70.592C256.159 70.768 256.383 70.904 256.575 71C256.783 71.08 257.007 71.136 257.247 71.168C257.503 71.2 257.799 71.216 258.135 71.216H263.439V74H258.135ZM263.439 74V71.216C263.519 71.216 263.591 71.248 263.655 71.312C263.719 71.376 263.767 71.472 263.799 71.6C263.831 71.728 263.855 71.88 263.871 72.056C263.903 72.216 263.919 72.4 263.919 72.608C263.919 72.816 263.903 73.008 263.871 73.184C263.855 73.36 263.831 73.512 263.799 73.64C263.767 73.752 263.719 73.84 263.655 73.904C263.591 73.968 263.519 74 263.439 74ZM248.487 84.896V82.16H251.583V84.896H248.487ZM252.855 84.896V82.16H255.951V84.896H252.855ZM276.87 74V71.216H279.39V74H276.87ZM263.43 74C263.334 74 263.262 73.968 263.214 73.904C263.15 73.84 263.102 73.752 263.07 73.64C263.022 73.512 262.99 73.36 262.974 73.184C262.958 73.008 262.95 72.816 262.95 72.608C262.95 72.32 262.966 72.08 262.998 71.888C263.03 71.68 263.086 71.52 263.166 71.408C263.23 71.28 263.318 71.216 263.43 71.216V74ZM263.43 74V71.216H274.638L273.654 72.056V64.04L274.47 64.736H271.446C270.742 64.736 270.19 64.824 269.79 65C269.39 65.176 269.11 65.504 268.95 65.984C268.79 66.448 268.71 67.112 268.71 67.976C268.71 68.92 268.79 69.624 268.95 70.088C269.11 70.536 269.39 70.84 269.79 71C270.19 71.144 270.742 71.216 271.446 71.216V73.712C270.086 73.712 268.966 73.52 268.086 73.136C267.206 72.752 266.55 72.144 266.118 71.312C265.702 70.464 265.494 69.352 265.494 67.976C265.494 66.664 265.702 65.56 266.118 64.664C266.55 63.768 267.206 63.096 268.086 62.648C268.966 62.184 270.086 61.952 271.446 61.952H276.87V74H263.43ZM279.39 74V71.216C279.486 71.216 279.566 71.248 279.63 71.312C279.694 71.376 279.742 71.472 279.774 71.6C279.806 71.728 279.83 71.88 279.846 72.056C279.862 72.216 279.87 72.4 279.87 72.608C279.87 72.816 279.862 73.008 279.846 73.184C279.83 73.36 279.806 73.512 279.774 73.64C279.742 73.752 279.694 73.84 279.63 73.904C279.566 73.968 279.486 74 279.39 74ZM268.062 59.744V57.008H271.158V59.744H268.062ZM272.43 59.744V57.008H275.526V59.744H272.43ZM279.391 74V71.216H285.079L283.207 72.776V61.952H286.399V74H279.391ZM279.391 74C279.295 74 279.223 73.968 279.175 73.904C279.111 73.84 279.063 73.752 279.031 73.64C278.983 73.512 278.951 73.36 278.935 73.184C278.919 73.008 278.911 72.816 278.911 72.608C278.911 72.32 278.927 72.08 278.959 71.888C278.991 71.68 279.047 71.52 279.127 71.408C279.191 71.28 279.279 71.216 279.391 71.216V74ZM280.255 79.112V76.376H283.351V79.112H280.255ZM284.623 79.112V76.376H287.719V79.112H284.623ZM298.86 74V71.216H301.38V74H298.86ZM289.116 74V71.216H297.828L295.644 73.112V69.08C295.644 67.944 295.524 67.064 295.284 66.44C295.06 65.816 294.676 65.376 294.132 65.12C293.604 64.864 292.876 64.736 291.948 64.736H290.004V61.952H291.948C293.42 61.952 294.668 62.192 295.692 62.672C296.732 63.152 297.516 63.92 298.044 64.976C298.588 66.016 298.86 67.384 298.86 69.08V74H289.116ZM301.38 74V71.216C301.476 71.216 301.556 71.248 301.62 71.312C301.684 71.376 301.732 71.472 301.764 71.6C301.796 71.728 301.82 71.88 301.836 72.056C301.852 72.216 301.86 72.4 301.86 72.608C301.86 72.816 301.852 73.008 301.836 73.184C301.82 73.36 301.796 73.512 301.764 73.64C301.732 73.752 301.684 73.84 301.62 73.904C301.556 73.968 301.476 74 301.38 74ZM301.375 74V71.216H319.519L316.807 73.568V68.528C316.807 67.616 316.687 66.888 316.447 66.344C316.207 65.784 315.855 65.376 315.391 65.12C314.943 64.864 314.399 64.736 313.759 64.736C313.071 64.736 312.415 64.872 311.791 65.144C311.183 65.416 310.615 65.768 310.087 66.2C309.559 66.632 309.071 67.096 308.623 67.592C308.175 68.088 307.775 68.568 307.423 69.032C307.071 69.48 306.767 69.864 306.511 70.184L305.791 67.856C306.415 67.104 306.975 66.416 307.471 65.792C307.967 65.168 308.439 64.616 308.887 64.136C309.351 63.656 309.831 63.256 310.327 62.936C310.839 62.616 311.391 62.376 311.983 62.216C312.591 62.04 313.295 61.952 314.095 61.952C315.167 61.952 316.079 62.136 316.831 62.504C317.583 62.856 318.191 63.344 318.655 63.968C319.135 64.592 319.479 65.296 319.687 66.08C319.911 66.864 320.023 67.68 320.023 68.528V74H301.375ZM304.399 71.216V61.952H307.615V71.216H304.399ZM301.375 74C301.279 74 301.207 73.968 301.159 73.904C301.095 73.84 301.047 73.752 301.015 73.64C300.967 73.512 300.935 73.36 300.919 73.184C300.903 73.008 300.895 72.816 300.895 72.608C300.895 72.32 300.911 72.08 300.943 71.888C300.975 71.68 301.031 71.52 301.111 71.408C301.175 71.28 301.263 71.216 301.375 71.216V74ZM332.25 74V71.216H334.986V74H332.25ZM329.058 74V57.032H332.25V74H329.058ZM334.986 74V71.216C335.082 71.216 335.154 71.248 335.202 71.312C335.266 71.376 335.314 71.472 335.346 71.6C335.394 71.728 335.426 71.88 335.442 72.056C335.458 72.216 335.466 72.4 335.466 72.608C335.466 72.816 335.458 73.008 335.442 73.184C335.426 73.36 335.394 73.512 335.346 73.64C335.314 73.752 335.266 73.84 335.202 73.904C335.154 73.968 335.082 74 334.986 74ZM334.984 74V71.216H340.672L338.8 72.776V61.952H341.992V74H334.984ZM334.984 74C334.888 74 334.816 73.968 334.768 73.904C334.704 73.84 334.656 73.752 334.624 73.64C334.576 73.512 334.544 73.36 334.528 73.184C334.512 73.008 334.504 72.816 334.504 72.608C334.504 72.32 334.52 72.08 334.552 71.888C334.584 71.68 334.64 71.52 334.72 71.408C334.784 71.28 334.872 71.216 334.984 71.216V74ZM335.848 79.112V76.376H338.944V79.112H335.848ZM340.216 79.112V76.376H343.312V79.112H340.216ZM367.625 74V71.216H370.145V74H367.625ZM357.833 74C356.121 74 354.673 73.776 353.489 73.328C352.321 72.88 351.433 72.216 350.825 71.336C350.233 70.456 349.937 69.36 349.937 68.048C349.937 67.664 349.961 67.264 350.009 66.848C350.057 66.416 350.113 66.008 350.177 65.624C350.257 65.224 350.329 64.872 350.393 64.568C350.457 64.264 350.505 64.04 350.537 63.896L353.657 64.496C353.609 64.752 353.545 65.08 353.465 65.48C353.385 65.88 353.313 66.304 353.249 66.752C353.185 67.184 353.153 67.6 353.153 68C353.153 68.624 353.249 69.144 353.441 69.56C353.649 69.976 353.953 70.312 354.353 70.568C354.753 70.808 355.257 70.976 355.865 71.072C356.473 71.168 357.185 71.216 358.001 71.216H366.281L364.409 72.776V57.032H367.625V74H357.833ZM370.145 74V71.216C370.241 71.216 370.313 71.248 370.361 71.312C370.425 71.376 370.473 71.472 370.505 71.6C370.553 71.728 370.585 71.88 370.601 72.056C370.617 72.216 370.625 72.4 370.625 72.608C370.625 72.816 370.617 73.008 370.601 73.184C370.585 73.36 370.553 73.512 370.505 73.64C370.473 73.752 370.425 73.84 370.361 73.904C370.313 73.968 370.241 74 370.145 74ZM357.329 64.952C357.025 64.584 356.793 64.232 356.633 63.896C356.473 63.56 356.393 63.2 356.393 62.816C356.393 62.272 356.537 61.784 356.825 61.352C357.113 60.904 357.489 60.56 357.953 60.32C358.417 60.064 358.929 59.936 359.489 59.936C359.793 59.936 360.105 59.976 360.425 60.056C360.745 60.136 361.017 60.256 361.241 60.416L360.425 61.88C360.281 61.8 360.137 61.752 359.993 61.736C359.865 61.704 359.729 61.688 359.585 61.688C359.201 61.688 358.905 61.792 358.697 62C358.489 62.192 358.385 62.456 358.385 62.792C358.385 62.984 358.425 63.168 358.505 63.344C358.585 63.52 358.705 63.712 358.865 63.92L357.329 64.952ZM355.865 65.144V63.392H361.673V65.144H355.865ZM370.141 74V71.216H374.533L372.661 72.776V61.952H375.877V74H370.141ZM370.141 74C370.045 74 369.973 73.968 369.925 73.904C369.861 73.84 369.813 73.752 369.781 73.64C369.733 73.512 369.701 73.36 369.685 73.184C369.669 73.008 369.661 72.816 369.661 72.608C369.661 72.32 369.677 72.08 369.709 71.888C369.741 71.68 369.797 71.52 369.877 71.408C369.941 71.28 370.029 71.216 370.141 71.216V74ZM372.661 79.112V76.376H375.877V79.112H372.661ZM397.676 74V71.216H400.196V74H397.676ZM383.804 74V71.216H395.996L394.46 72.8V57.032H397.676V74H383.804ZM387.14 71.216V60.392H390.332V71.216H387.14ZM400.196 74V71.216C400.292 71.216 400.364 71.248 400.412 71.312C400.476 71.376 400.524 71.472 400.556 71.6C400.604 71.728 400.636 71.88 400.652 72.056C400.668 72.216 400.676 72.4 400.676 72.608C400.676 72.816 400.668 73.008 400.652 73.184C400.636 73.36 400.604 73.512 400.556 73.64C400.524 73.752 400.476 73.84 400.412 73.904C400.364 73.968 400.292 74 400.196 74ZM400.188 74V71.216H416.844L414.612 73.016V68.912C414.612 67.536 414.428 66.432 414.06 65.6C413.708 64.768 413.14 64.168 412.356 63.8C411.588 63.416 410.588 63.224 409.356 63.224C408.764 63.224 408.116 63.248 407.412 63.296C406.708 63.328 406.004 63.376 405.3 63.44C404.612 63.488 403.988 63.544 403.428 63.608L403.092 61.448C403.636 61.304 404.268 61.152 404.988 60.992C405.708 60.832 406.46 60.696 407.243 60.584C408.044 60.472 408.82 60.416 409.572 60.416C410.612 60.416 411.62 60.56 412.596 60.848C413.588 61.12 414.476 61.584 415.26 62.24C416.044 62.88 416.668 63.744 417.132 64.832C417.596 65.92 417.828 67.28 417.828 68.912V74H400.188ZM402.66 71.216V70.016C402.66 69.248 402.852 68.536 403.236 67.88C403.636 67.208 404.18 66.68 404.868 66.296C405.556 65.896 406.324 65.696 407.172 65.696C408.02 65.696 408.78 65.896 409.452 66.296C410.124 66.68 410.652 67.2 411.036 67.856C411.436 68.512 411.636 69.232 411.636 70.016V71.216H409.092V70.016C409.092 69.616 409.004 69.264 408.828 68.96C408.652 68.64 408.42 68.384 408.132 68.192C407.844 68 407.524 67.904 407.172 67.904C406.82 67.904 406.492 68 406.188 68.192C405.9 68.384 405.668 68.64 405.492 68.96C405.316 69.264 405.228 69.616 405.228 70.016V71.216H402.66ZM400.188 74C400.091 74 400.019 73.968 399.971 73.904C399.907 73.84 399.859 73.752 399.827 73.64C399.779 73.512 399.747 73.36 399.731 73.184C399.715 73.008 399.707 72.816 399.707 72.608C399.707 72.32 399.723 72.08 399.755 71.888C399.787 71.68 399.843 71.52 399.923 71.408C399.987 71.28 400.075 71.216 400.188 71.216V74ZM421.637 74V57.032H424.829V74H421.637ZM421.781 55.112C421.477 54.744 421.245 54.392 421.085 54.056C420.925 53.72 420.845 53.36 420.845 52.976C420.845 52.432 420.989 51.944 421.277 51.512C421.565 51.064 421.941 50.72 422.405 50.48C422.869 50.224 423.381 50.096 423.941 50.096C424.245 50.096 424.557 50.136 424.877 50.216C425.197 50.296 425.469 50.416 425.693 50.576L424.877 52.04C424.733 51.96 424.589 51.912 424.445 51.896C424.317 51.864 424.181 51.848 424.037 51.848C423.653 51.848 423.357 51.952 423.149 52.16C422.941 52.352 422.837 52.616 422.837 52.952C422.837 53.144 422.877 53.328 422.957 53.504C423.037 53.68 423.157 53.872 423.317 54.08L421.781 55.112ZM420.317 55.304V53.552H426.125V55.304H420.317Z" fill="white"/>
</g>
<defs>
<linearGradient id="paint0_linear_35_222" x1="279.744" y1="109.1" x2="261.938" y2="157.428" gradientUnits="userSpaceOnUse">
<stop stop-color="#ABF0A5"/>
<stop offset="1" stop-color="#DEFA8E"/>
</linearGradient>
<linearGradient id="paint1_linear_35_222" x1="183.079" y1="246.582" x2="59.5107" y2="342.617" gradientUnits="userSpaceOnUse">
<stop offset="0.0397" stop-color="#06BED8"/>
<stop offset="1" stop-color="#DEFA8E"/>
</linearGradient>
<linearGradient id="paint2_linear_35_222" x1="120.034" y1="36.5523" x2="99.6853" y2="33.5848" gradientUnits="userSpaceOnUse">
<stop offset="0.0397" stop-color="#06CFF1"/>
<stop offset="1" stop-color="#DEFA8E"/>
</linearGradient>
<linearGradient id="paint3_linear_35_222" x1="125.224" y1="88.2227" x2="89.1123" y2="47.4513" gradientUnits="userSpaceOnUse">
<stop offset="0.0397" stop-color="#06CFF1"/>
<stop offset="1" stop-color="#DEFA8E"/>
</linearGradient>
<linearGradient id="paint4_linear_35_222" x1="177.529" y1="229.447" x2="34.4315" y2="86.3491" gradientUnits="userSpaceOnUse">
<stop offset="0.0397" stop-color="#06CFF1"/>
<stop offset="1" stop-color="#DEFA8E"/>
</linearGradient>
<linearGradient id="paint5_linear_35_222" x1="106.587" y1="175.924" x2="105.315" y2="118.693" gradientUnits="userSpaceOnUse">
<stop stop-color="#030D14"/>
<stop offset="1" stop-color="#0B2F45"/>
</linearGradient>
<radialGradient id="paint6_radial_35_222" cx="0" cy="0" r="1" gradientUnits="userSpaceOnUse" gradientTransform="translate(139.802 146.879) rotate(180) scale(23.7855)">
<stop offset="0.1296" stop-color="#3280FC"/>
<stop offset="1"/>
</radialGradient>
<linearGradient id="paint7_linear_35_222" x1="154.292" y1="146.879" x2="125.313" y2="146.879" gradientUnits="userSpaceOnUse">
<stop stop-color="#030D14"/>
<stop offset="1" stop-color="#0B2F45"/>
</linearGradient>
<radialGradient id="paint8_radial_35_222" cx="0" cy="0" r="1" gradientUnits="userSpaceOnUse" gradientTransform="translate(74.8748 146.879) rotate(180) scale(23.7855 23.7855)">
<stop offset="0.1296" stop-color="#3280FC"/>
<stop offset="1"/>
</radialGradient>
<linearGradient id="paint9_linear_35_222" x1="89.3638" y1="146.879" x2="60.3855" y2="146.879" gradientUnits="userSpaceOnUse">
<stop stop-color="#030D14"/>
<stop offset="1" stop-color="#0B2F45"/>
</linearGradient>
<linearGradient id="paint10_linear_35_222" x1="124.505" y1="11.9802" x2="97.5749" y2="8.05288" gradientUnits="userSpaceOnUse">
<stop offset="0.0397" stop-color="#06CFF1"/>
<stop offset="1" stop-color="#DEFA8E"/>
</linearGradient>
<linearGradient id="paint11_linear_35_222" x1="107.08" y1="198.152" x2="65.648" y2="156.72" gradientUnits="userSpaceOnUse">
<stop offset="0.0714" stop-color="#0DA9AB"/>
<stop offset="1" stop-color="#DEFA8E"/>
</linearGradient>
<linearGradient id="paint12_linear_35_222" x1="146.21" y1="323.881" x2="36.4372" y2="195.695" gradientUnits="userSpaceOnUse">
<stop offset="0.0397" stop-color="#06CFF1"/>
<stop offset="0.0408" stop-color="#06CFF1"/>
<stop offset="0.1607" stop-color="#37D9DB"/>
<stop offset="0.2745" stop-color="#5DE0CA"/>
<stop offset="0.3793" stop-color="#78E6BD"/>
<stop offset="0.4719" stop-color="#88E9B6"/>
<stop offset="0.5423" stop-color="#8EEAB3"/>
<stop offset="0.8004" stop-color="#B9F39F"/>
<stop offset="1" stop-color="#DEFA8E"/>
</linearGradient>
<linearGradient id="paint13_linear_35_222" x1="152.025" y1="259.975" x2="86.012" y2="182.888" gradientUnits="userSpaceOnUse">
<stop offset="0.0397" stop-color="#06CFF1"/>
<stop offset="1" stop-color="#DEFA8E"/>
</linearGradient>
<linearGradient id="paint14_linear_35_222" x1="10.1859" y1="304.74" x2="92.3756" y2="244.628" gradientUnits="userSpaceOnUse">
<stop offset="0.0397" stop-color="#06CFF1"/>
<stop offset="0.0734" stop-color="#0FD1ED"/>
<stop offset="0.4151" stop-color="#67E2C5"/>
<stop offset="0.6937" stop-color="#A7EFA7"/>
<stop offset="0.8955" stop-color="#CFF795"/>
<stop offset="1" stop-color="#DEFA8E"/>
</linearGradient>
<linearGradient id="paint15_linear_35_222" x1="82.6168" y1="298.911" x2="24.3687" y2="268.556" gradientUnits="userSpaceOnUse">
<stop offset="0.0397" stop-color="#06BED8"/>
<stop offset="1" stop-color="#DEFA8E"/>
</linearGradient>
<radialGradient id="paint16_radial_35_222" cx="0" cy="0" r="1" gradientUnits="userSpaceOnUse" gradientTransform="translate(102.819 373.23) rotate(180) scale(67.9429 27.815)">
<stop stop-color="#BCD7D6"/>
<stop offset="1" stop-color="white"/>
</radialGradient>
<linearGradient id="paint17_linear_35_222" x1="449.954" y1="66.1192" x2="225.683" y2="66.1192" gradientUnits="userSpaceOnUse">
<stop stop-color="#06CFF1"/>
<stop offset="1" stop-color="#DEFA8E"/>
</linearGradient>
<clipPath id="clip0_35_222">
<rect width="450" height="401.538" fill="white"/>
</clipPath>
</defs>
</svg>
