<svg width="71" height="70" viewBox="0 0 71 70" fill="none" xmlns="http://www.w3.org/2000/svg">
<g clip-path="url(#clip0_90_24)">
<g clip-path="url(#clip1_90_24)">
<g clip-path="url(#clip2_90_24)">
<mask id="mask0_90_24" style="mask-type:luminance" maskUnits="userSpaceOnUse" x="0" y="0" width="71" height="70">
<path d="M70.5051 0H0.505127V70H70.5051V0Z" fill="white"/>
</mask>
<g mask="url(#mask0_90_24)">
<path opacity="0.1" d="M50.5051 0H20.5051C9.45943 0 0.505127 8.9543 0.505127 20V50C0.505127 61.0457 9.45943 70 20.5051 70H50.5051C61.5508 70 70.5051 61.0457 70.5051 50V20C70.5051 8.9543 61.5508 0 50.5051 0Z" fill="#073894"/>
<path d="M34.0747 46.5613L26.2494 42.0397C25.7962 41.777 25.4444 41.4246 25.194 40.9827C24.9435 40.5408 24.8183 40.069 24.8183 39.5673V30.524C24.8183 30.0224 24.9435 29.5506 25.194 29.1087C25.4444 28.6668 25.7962 28.3144 26.2494 28.0516L34.0747 23.53C34.5286 23.2702 35.0065 23.1402 35.5083 23.1402C36.01 23.1402 36.4862 23.2702 36.9369 23.53L44.7622 28.0516C45.2154 28.3144 45.5672 28.6668 45.8176 29.1087C46.068 29.5506 46.1932 30.0224 46.1932 30.524V39.5673C46.1932 40.069 46.068 40.5408 45.8176 40.9827C45.5672 41.4246 45.2154 41.777 44.7622 42.0397L36.9369 46.5613C36.4829 46.8212 36.005 46.9511 35.5033 46.9511C35.0015 46.9511 34.5253 46.8212 34.0747 46.5613ZM21.6511 28.2708C21.3145 28.2708 21.0325 28.157 20.8052 27.9294C20.5778 27.7018 20.4641 27.4198 20.4641 27.0833V22.8206C20.4641 22.0335 20.7444 21.3597 21.3049 20.7992C21.8654 20.2386 22.5392 19.9584 23.3263 19.9584H27.5891C27.9256 19.9584 28.2076 20.0722 28.4352 20.2999C28.6628 20.5276 28.7766 20.8098 28.7766 21.1464C28.7766 21.483 28.6628 21.765 28.4352 21.9923C28.2076 22.2197 27.9256 22.3333 27.5891 22.3333H23.3263C23.1842 22.3333 23.0675 22.379 22.9761 22.4704C22.8848 22.5617 22.8391 22.6785 22.8391 22.8206V27.0833C22.8391 27.4198 22.7252 27.7018 22.4975 27.9294C22.2699 28.157 21.9877 28.2708 21.6511 28.2708ZM23.3263 50.0416C22.5392 50.0416 21.8654 49.7614 21.3049 49.2008C20.7444 48.6403 20.4641 47.9665 20.4641 47.1794V42.9167C20.4641 42.5802 20.578 42.2982 20.8057 42.0706C21.0334 41.843 21.3156 41.7292 21.6522 41.7292C21.9888 41.7292 22.2708 41.843 22.4981 42.0706C22.7254 42.2982 22.8391 42.5802 22.8391 42.9167V47.1794C22.8391 47.3215 22.8848 47.4383 22.9761 47.5296C23.0675 47.621 23.1842 47.6667 23.3263 47.6667H27.5891C27.9256 47.6667 28.2076 47.7805 28.4352 48.0082C28.6628 48.2359 28.7766 48.5181 28.7766 48.8547C28.7766 49.1913 28.6628 49.4732 28.4352 49.7006C28.2076 49.9279 27.9256 50.0416 27.5891 50.0416H23.3263ZM47.6852 50.0416H43.4224C43.086 50.0416 42.8039 49.9278 42.5763 49.7001C42.3488 49.4724 42.235 49.1902 42.235 48.8536C42.235 48.517 42.3488 48.235 42.5763 48.0077C42.8039 47.7803 43.086 47.6667 43.4224 47.6667H47.6852C47.8273 47.6667 47.944 47.621 48.0354 47.5296C48.1268 47.4383 48.1724 47.3215 48.1724 47.1794V42.9167C48.1724 42.5802 48.2863 42.2982 48.514 42.0706C48.7417 41.843 49.0238 41.7292 49.3605 41.7292C49.697 41.7292 49.979 41.843 50.2063 42.0706C50.4337 42.2982 50.5474 42.5802 50.5474 42.9167V47.1794C50.5474 47.9665 50.2671 48.6403 49.7066 49.2008C49.1461 49.7614 48.4723 50.0416 47.6852 50.0416ZM48.1724 27.0833V22.8206C48.1724 22.6785 48.1268 22.5617 48.0354 22.4704C47.944 22.379 47.8273 22.3333 47.6852 22.3333H43.4224C43.086 22.3333 42.8039 22.2195 42.5763 21.9918C42.3488 21.7641 42.235 21.4819 42.235 21.1453C42.235 20.8087 42.3488 20.5268 42.5763 20.2994C42.8039 20.0721 43.086 19.9584 43.4224 19.9584H47.6852C48.4723 19.9584 49.1461 20.2386 49.7066 20.7992C50.2671 21.3597 50.5474 22.0335 50.5474 22.8206V27.0833C50.5474 27.4198 50.4335 27.7018 50.2058 27.9294C49.9781 28.157 49.696 28.2708 49.3594 28.2708C49.0228 28.2708 48.7408 28.157 48.5134 27.9294C48.2861 27.7018 48.1724 27.4198 48.1724 27.0833ZM28.4294 29.5436L27.1932 30.25V31.6201L34.3183 35.7125V43.9703L35.5058 44.6523L36.6932 43.9703V35.7125L43.8183 31.6201V30.25L42.5821 29.5436L35.5058 33.6664L28.4294 29.5436Z" fill="#073894"/>
</g>
</g>
</g>
</g>
<defs>
<clipPath id="clip0_90_24">
<rect width="70" height="70" fill="white" transform="translate(0.719971)"/>
</clipPath>
<clipPath id="clip1_90_24">
<rect width="70" height="70" fill="white" transform="translate(0.719971)"/>
</clipPath>
<clipPath id="clip2_90_24">
<rect width="71" height="70" fill="white" transform="translate(0.219971)"/>
</clipPath>
</defs>
</svg>
