<svg width="71" height="70" viewBox="0 0 71 70" fill="none" xmlns="http://www.w3.org/2000/svg">
<g clip-path="url(#clip0_90_14)">
<g clip-path="url(#clip1_90_14)">
<g clip-path="url(#clip2_90_14)">
<mask id="mask0_90_14" style="mask-type:luminance" maskUnits="userSpaceOnUse" x="0" y="0" width="71" height="70">
<path d="M70.5024 0H0.502441V70H70.5024V0Z" fill="white"/>
</mask>
<g mask="url(#mask0_90_14)">
<path opacity="0.1" d="M50.5024 0H20.5024C9.45675 0 0.502441 8.9543 0.502441 20V50C0.502441 61.0457 9.45675 70 20.5024 70H50.5024C61.5481 70 70.5024 61.0457 70.5024 50V20C70.5024 8.9543 61.5481 0 50.5024 0Z" fill="#05ACFF"/>
<path fill-rule="evenodd" clip-rule="evenodd" d="M23.296 47.1875C23.8251 47.7291 24.4714 48 25.235 48H45.7699C46.5334 48 47.1798 47.7292 47.7088 47.1875C48.2379 46.6458 48.5025 45.9841 48.5025 45.2024V24.7976C48.5025 24.0159 48.2379 23.3542 47.7088 22.8125C47.1798 22.2708 46.5334 22 45.7699 22H25.235C24.4714 22 23.8251 22.2708 23.296 22.8125C22.7669 23.3542 22.5024 24.0159 22.5024 24.7976V45.2024C22.5024 45.9841 22.7669 46.6458 23.296 47.1875ZM28.018 39.1452C27.9784 39.2541 27.9585 39.373 27.9585 39.5018C27.9585 39.7989 28.0625 40.0515 28.2705 40.2595C28.4785 40.4675 28.7311 40.5715 29.0283 40.5715C29.2561 40.5715 29.4591 40.5071 29.6374 40.3783C29.8256 40.2397 29.9593 40.0564 30.0385 39.8286L30.5734 38.3429H35.0157L35.4614 39.7246C35.5407 39.9722 35.6793 40.1753 35.8774 40.3338C36.0755 40.4922 36.2984 40.5715 36.546 40.5715C36.8729 40.5715 37.1502 40.4576 37.378 40.2298C37.6058 40.0019 37.7197 39.7296 37.7197 39.4126C37.7197 39.2838 37.6999 39.16 37.6603 39.0412L34.7334 30.7509C34.6047 30.3547 34.3669 30.0377 34.0203 29.8C33.6736 29.5524 33.2923 29.4286 32.8763 29.4286C32.4603 29.4286 32.0789 29.5474 31.7323 29.7852C31.3955 30.0229 31.1578 30.3398 31.0191 30.736L28.018 39.1452ZM31.0786 36.5452L32.7723 31.4492L34.5551 36.5452H31.0786ZM39.7728 40.2446C39.9907 40.4625 40.2532 40.5715 40.5602 40.5715C40.8574 40.5715 41.1099 40.4625 41.3179 40.2446C41.5358 40.0267 41.6448 39.7692 41.6448 39.472V30.528C41.6448 30.221 41.5358 29.9634 41.3179 29.7554C41.1099 29.5375 40.8574 29.4286 40.5602 29.4286C40.2532 29.4286 39.9907 29.5375 39.7728 29.7554C39.5648 29.9634 39.4608 30.221 39.4608 30.528V39.472C39.4608 39.7692 39.5648 40.0267 39.7728 40.2446Z" fill="#05ACFF"/>
</g>
</g>
</g>
</g>
<defs>
<clipPath id="clip0_90_14">
<rect width="70" height="70" fill="white" transform="translate(0.859863)"/>
</clipPath>
<clipPath id="clip1_90_14">
<rect width="70" height="70" fill="white" transform="translate(0.859863)"/>
</clipPath>
<clipPath id="clip2_90_14">
<rect width="71" height="70" fill="white" transform="translate(0.359863)"/>
</clipPath>
</defs>
</svg>
