<svg width="71" height="70" viewBox="0 0 71 70" fill="none" xmlns="http://www.w3.org/2000/svg">
<g clip-path="url(#clip0_90_34)">
<g clip-path="url(#clip1_90_34)">
<g clip-path="url(#clip2_90_34)">
<mask id="mask0_90_34" style="mask-type:luminance" maskUnits="userSpaceOnUse" x="0" y="0" width="71" height="70">
<path d="M70.5078 0H0.507812V70H70.5078V0Z" fill="white"/>
</mask>
<g mask="url(#mask0_90_34)">
<path opacity="0.1" d="M50.5078 0H20.5078C9.46212 0 0.507812 8.9543 0.507812 20V50C0.507812 61.0457 9.46212 70 20.5078 70H50.5078C61.5535 70 70.5078 61.0457 70.5078 50V20C70.5078 8.9543 61.5535 0 50.5078 0Z" fill="#FF7F1C"/>
<path d="M22.1362 46.6111C20.9208 46.6111 19.9795 46.1757 19.3123 45.3048C18.645 44.434 18.3929 43.4071 18.5558 42.2242L20.47 28.4976C20.7037 26.9041 21.3985 25.5895 22.5543 24.5537C23.7101 23.5179 25.074 23 26.6462 23H44.3695C45.9416 23 47.3056 23.5179 48.4614 24.5537C49.6172 25.5895 50.3119 26.9041 50.5457 28.4976L52.4599 42.2242C52.6228 43.4071 52.3707 44.434 51.7034 45.3048C51.0362 46.1757 50.0948 46.6111 48.8795 46.6111C48.3677 46.6111 47.8977 46.5238 47.4697 46.3491C47.0416 46.1745 46.644 45.9009 46.2768 45.5284L41.9733 41.1624H29.0423L24.7389 45.5284C24.3717 45.9009 23.974 46.1745 23.546 46.3491C23.1179 46.5238 22.648 46.6111 22.1362 46.6111ZM44.459 36.4472C44.9088 36.4472 45.291 36.2877 45.6054 35.9686C45.9198 35.6496 46.0771 35.2619 46.0771 34.8056C46.0771 34.3492 45.9198 33.9615 45.6054 33.6425C45.291 33.3235 44.9088 33.1639 44.459 33.1639C44.0091 33.1639 43.627 33.3235 43.3126 33.6425C42.9981 33.9615 42.8409 34.3492 42.8409 34.8056C42.8409 35.2619 42.9981 35.6496 43.3126 35.9686C43.627 36.2877 44.0091 36.4472 44.459 36.4472ZM40.8785 30.9984C41.3284 30.9984 41.7105 30.8389 42.0249 30.5199C42.3394 30.2009 42.4966 29.8132 42.4966 29.3568C42.4966 28.9004 42.3394 28.5127 42.0249 28.1937C41.7105 27.8747 41.3284 27.7152 40.8785 27.7152C40.4287 27.7152 40.0465 27.8747 39.7321 28.1937C39.4176 28.5127 39.2604 28.9004 39.2604 29.3568C39.2604 29.8132 39.4176 30.2009 39.7321 30.5199C40.0465 30.8389 40.4287 30.9984 40.8785 30.9984ZM28.1748 33.1639V35.2596C28.1748 35.5716 28.2758 35.8301 28.4777 36.035C28.6797 36.2399 28.9345 36.3424 29.242 36.3424C29.5496 36.3447 29.8037 36.2428 30.0046 36.0367C30.2054 35.8307 30.307 35.5716 30.3093 35.2596V33.1639H32.3749C32.6825 33.1639 32.9372 33.0615 33.1392 32.8566C33.3412 32.6517 33.4422 32.3932 33.4422 32.0812C33.4445 31.7692 33.3441 31.5113 33.1409 31.3076C32.9378 31.1038 32.6825 31.0008 32.3749 30.9984H30.3093V28.9028C30.3093 28.5908 30.2083 28.3323 30.0063 28.1274C29.8043 27.9225 29.5496 27.82 29.242 27.82C28.9345 27.8177 28.6803 27.9195 28.4795 28.1256C28.2787 28.3317 28.1771 28.5908 28.1748 28.9028V30.9984H26.1091C25.8016 30.9984 25.5468 31.1009 25.3448 31.3058C25.1429 31.5107 25.0419 31.7692 25.0419 32.0812C25.0396 32.3932 25.14 32.6511 25.3431 32.8548C25.5463 33.0586 25.8016 33.1616 26.1091 33.1639H28.1748Z" fill="#FF7F1C"/>
</g>
</g>
</g>
</g>
<defs>
<clipPath id="clip0_90_34">
<rect width="70" height="70" fill="white" transform="translate(0.580078)"/>
</clipPath>
<clipPath id="clip1_90_34">
<rect width="70" height="70" fill="white" transform="translate(0.580078)"/>
</clipPath>
<clipPath id="clip2_90_34">
<rect width="71" height="70" fill="white" transform="translate(0.0800781)"/>
</clipPath>
</defs>
</svg>
