<svg width="71" height="70" viewBox="0 0 71 70" fill="none" xmlns="http://www.w3.org/2000/svg">
<g clip-path="url(#clip0_90_44)">
<g clip-path="url(#clip1_90_44)">
<g clip-path="url(#clip2_90_44)">
<mask id="mask0_90_44" style="mask-type:luminance" maskUnits="userSpaceOnUse" x="0" y="0" width="71" height="70">
<path d="M70.5122 0H0.512207V70H70.5122V0Z" fill="white"/>
</mask>
<g mask="url(#mask0_90_44)">
<path opacity="0.1" d="M50.5122 0H20.5122C9.46651 0 0.512207 8.9543 0.512207 20V50C0.512207 61.0457 9.46651 70 20.5122 70H50.5122C61.5579 70 70.5122 61.0457 70.5122 50V20C70.5122 8.9543 61.5579 0 50.5122 0Z" fill="#FFBB1C"/>
<path d="M32.9797 19.8C30.1816 19.8 27.913 22.0686 27.913 24.8667V26.1334H34.2464C34.9456 26.1334 35.513 26.7008 35.513 27.4C35.513 28.0992 34.9456 28.6667 34.2464 28.6667H27.913H26.6464H25.3797C22.5816 28.6667 20.313 30.9353 20.313 33.7333V38.8C20.313 41.5981 22.5816 43.8667 25.3797 43.8667H26.6464V37.5333C26.6464 35.4383 28.3513 33.7333 30.4464 33.7333H40.5797C41.2789 33.7333 41.8464 33.166 41.8464 32.4668V24.8667C41.8464 22.0686 39.5778 19.8 36.7797 19.8H32.9797ZM31.713 22.3333C32.4122 22.3333 32.9797 22.9009 32.9797 23.6C32.9797 24.2993 32.4122 24.8667 31.713 24.8667C31.0138 24.8667 30.4464 24.2993 30.4464 23.6C30.4464 22.9009 31.0138 22.3333 31.713 22.3333ZM44.3797 26.1334V32.4668C44.3797 34.5618 42.6748 36.2668 40.5797 36.2668H30.4464C29.7472 36.2668 29.1797 36.8341 29.1797 37.5333V45.1334C29.1797 47.9314 31.4483 50.2001 34.2464 50.2001H38.0464C40.8444 50.2001 43.113 47.9314 43.113 45.1334V43.8667H36.7797C36.0805 43.8667 35.513 43.2992 35.513 42.6C35.513 41.9008 36.0805 41.3334 36.7797 41.3334H43.113H44.3797H45.6464C48.4444 41.3334 50.713 39.0648 50.713 36.2668V31.2001C50.713 28.402 48.4444 26.1334 45.6464 26.1334H44.3797ZM39.313 45.1334C40.0122 45.1334 40.5797 45.7009 40.5797 46.4001C40.5797 47.0993 40.0122 47.6667 39.313 47.6667C38.6138 47.6667 38.0464 47.0993 38.0464 46.4001C38.0464 45.7009 38.6138 45.1334 39.313 45.1334Z" fill="#FFBB1C"/>
</g>
</g>
</g>
</g>
<defs>
<clipPath id="clip0_90_44">
<rect width="70" height="70" fill="white" transform="translate(0.439941)"/>
</clipPath>
<clipPath id="clip1_90_44">
<rect width="70" height="70" fill="white" transform="translate(0.439941)"/>
</clipPath>
<clipPath id="clip2_90_44">
<rect width="71" height="70" fill="white" transform="translate(-0.0600586)"/>
</clipPath>
</defs>
</svg>
