<svg width="71" height="70" viewBox="0 0 71 70" fill="none" xmlns="http://www.w3.org/2000/svg">
<g clip-path="url(#clip0_90_79)">
<g clip-path="url(#clip1_90_79)">
<g clip-path="url(#clip2_90_79)">
<mask id="mask0_90_79" style="mask-type:luminance" maskUnits="userSpaceOnUse" x="0" y="0" width="71" height="70">
<path d="M70.3201 0H0.320068V70H70.3201V0Z" fill="white"/>
</mask>
<g mask="url(#mask0_90_79)">
<path opacity="0.1" d="M50.3201 0H20.3201C9.27437 0 0.320068 8.9543 0.320068 20V50C0.320068 61.0457 9.27437 70 20.3201 70H50.3201C61.3658 70 70.3201 61.0457 70.3201 50V20C70.3201 8.9543 61.3658 0 50.3201 0Z" fill="#056FEC"/>
<path d="M23.2838 46.875C22.4967 46.875 21.8229 46.5947 21.2624 46.0342C20.7018 45.4737 20.4216 44.7999 20.4216 44.0128V25.9873C20.4216 25.2002 20.7018 24.5264 21.2624 23.9659C21.8229 23.4053 22.4967 23.1251 23.2838 23.1251H46.1507C46.4871 23.1251 46.7691 23.2389 46.9967 23.4666C47.2244 23.6943 47.3382 23.9765 47.3382 24.3131C47.3382 24.6497 47.2244 24.9317 46.9967 25.159C46.7691 25.3864 46.4871 25.5 46.1507 25.5H23.2838C23.1417 25.5 23.0249 25.5457 22.9336 25.6371C22.8422 25.7284 22.7965 25.8452 22.7965 25.9873V44.0128C22.7965 44.1549 22.8422 44.2716 22.9336 44.363C23.0249 44.4543 23.1417 44.5 23.2838 44.5H26.1459C26.4823 44.5 26.7644 44.6139 26.992 44.8416C27.2196 45.0693 27.3334 45.3514 27.3334 45.688C27.3334 46.0246 27.2196 46.3066 26.992 46.5339C26.7644 46.7613 26.4823 46.875 26.1459 46.875H23.2838ZM33.7885 43.4038C34.4482 43.4038 35.009 43.1729 35.4708 42.7111C35.9326 42.2493 36.1635 41.6886 36.1635 41.0288C36.1635 40.3691 35.9326 39.8084 35.4708 39.3466C35.009 38.8847 34.4482 38.6538 33.7885 38.6538C33.1288 38.6538 32.568 38.8847 32.1062 39.3466C31.6444 39.8084 31.4135 40.3691 31.4135 41.0288C31.4135 41.6886 31.6444 42.2493 32.1062 42.7111C32.568 43.1729 33.1288 43.4038 33.7885 43.4038ZM49.0737 46.875H41.6747C41.2693 46.875 40.9294 46.7378 40.6551 46.4635C40.3808 46.1892 40.2436 45.8494 40.2436 45.4439V31.6811C40.2436 31.2756 40.3808 30.9357 40.6551 30.6615C40.9294 30.3872 41.2693 30.25 41.6747 30.25H49.0737C49.4792 30.25 49.8191 30.3872 50.0934 30.6615C50.3677 30.9357 50.5048 31.2756 50.5048 31.6811V45.4439C50.5048 45.8494 50.3677 46.1892 50.0934 46.4635C49.8191 46.7378 49.4792 46.875 49.0737 46.875ZM31.1091 45.4374V44.3234C30.6178 43.9255 30.2311 43.4409 29.949 42.8695C29.6668 42.298 29.5257 41.6845 29.5257 41.0288C29.5257 40.3732 29.6668 39.7596 29.949 39.1882C30.2311 38.6168 30.6178 38.1322 31.1091 37.7343V36.6202C31.1091 36.2129 31.2462 35.8715 31.5205 35.596C31.7948 35.3205 32.1347 35.1827 32.5401 35.1827H35.0369C35.4423 35.1827 35.7822 35.3205 36.0565 35.596C36.3308 35.8715 36.468 36.2129 36.468 36.6202V37.7343C36.9592 38.1322 37.3459 38.6168 37.628 39.1882C37.9102 39.7596 38.0513 40.3732 38.0513 41.0288C38.0513 41.6845 37.9102 42.298 37.628 42.8695C37.3459 43.4409 36.9592 43.9255 36.468 44.3234V45.4374C36.468 45.8447 36.3308 46.1862 36.0565 46.4617C35.7822 46.7372 35.4423 46.875 35.0369 46.875H32.5401C32.1347 46.875 31.7948 46.7372 31.5205 46.4617C31.2462 46.1862 31.1091 45.8447 31.1091 45.4374Z" fill="#056FEC"/>
</g>
</g>
</g>
</g>
<defs>
<clipPath id="clip0_90_79">
<rect width="70" height="70" fill="white" transform="translate(0.320068)"/>
</clipPath>
<clipPath id="clip1_90_79">
<rect width="70" height="70" fill="white" transform="translate(0.320068)"/>
</clipPath>
<clipPath id="clip2_90_79">
<rect width="70" height="70" fill="white" transform="translate(0.320068)"/>
</clipPath>
</defs>
</svg>
