<svg width="71" height="70" viewBox="0 0 71 70" fill="none" xmlns="http://www.w3.org/2000/svg">
<g clip-path="url(#clip0_90_65)">
<g clip-path="url(#clip1_90_65)">
<g clip-path="url(#clip2_90_65)">
<mask id="mask0_90_65" style="mask-type:luminance" maskUnits="userSpaceOnUse" x="0" y="0" width="71" height="70">
<path d="M70.8174 0H0.817383V70H70.8174V0Z" fill="white"/>
</mask>
<g mask="url(#mask0_90_65)">
<path opacity="0.1" d="M50.8174 0H20.8174C9.77169 0 0.817383 8.9543 0.817383 20V50C0.817383 61.0457 9.77169 70 20.8174 70H50.8174C61.8631 70 70.8174 61.0457 70.8174 50V20C70.8174 8.9543 61.8631 0 50.8174 0Z" fill="#043FAD"/>
<mask id="mask1_90_65" style="mask-type:luminance" maskUnits="userSpaceOnUse" x="16" y="16" width="39" height="38">
<path d="M54.8174 16H16.8174V54H54.8174V16Z" fill="white"/>
</mask>
<g mask="url(#mask1_90_65)">
<path d="M20.7751 43.9519V24.8302C20.7751 24.0431 21.0554 23.3693 21.6159 22.8088C22.1764 22.2483 22.8502 21.968 23.6373 21.968H47.9962C48.7833 21.968 49.4571 22.2483 50.0176 22.8088C50.5781 23.3693 50.8584 24.0431 50.8584 24.8302V43.9519H52.8375C53.174 43.9519 53.456 44.0657 53.6836 44.2934C53.9112 44.5211 54.025 44.8033 54.025 45.1399C54.025 45.4765 53.9112 45.7585 53.6836 45.9858C53.456 46.2131 53.174 46.3268 52.8375 46.3268H18.7959C18.4595 46.3268 18.1774 46.213 17.9498 45.9853C17.7222 45.7576 17.6084 45.4754 17.6084 45.1388C17.6084 44.8022 17.7222 44.5202 17.9498 44.2929C18.1774 44.0656 18.4595 43.9519 18.7959 43.9519H20.7751ZM33.3504 43.9519H38.2831C38.4698 43.9519 38.6332 43.8818 38.7733 43.7418C38.9134 43.6017 38.9834 43.4383 38.9834 43.2516C38.9834 43.0648 38.9134 42.9014 38.7733 42.7613C38.6332 42.6213 38.4698 42.5513 38.2831 42.5513H33.3504C33.1636 42.5513 33.0002 42.6213 32.8602 42.7613C32.7201 42.9014 32.6501 43.0648 32.6501 43.2516C32.6501 43.4383 32.7201 43.6017 32.8602 43.7418C33.0002 43.8818 33.1636 43.9519 33.3504 43.9519Z" fill="#043FAD"/>
</g>
</g>
</g>
</g>
</g>
<defs>
<clipPath id="clip0_90_65">
<rect width="70" height="70" fill="white" transform="translate(0.459961)"/>
</clipPath>
<clipPath id="clip1_90_65">
<rect width="70" height="70" fill="white" transform="translate(0.459961)"/>
</clipPath>
<clipPath id="clip2_90_65">
<rect width="71" height="70" fill="white" transform="translate(-0.0400391)"/>
</clipPath>
</defs>
</svg>
