<svg width="300" height="155" viewBox="0 0 300 155" fill="none" xmlns="http://www.w3.org/2000/svg">
<path d="M7.57766 56.8369L29.825 126.526C33.7556 138.839 45.3414 147.082 58.2633 146.757L259.023 141.706C273.578 141.34 285.619 130.268 287.204 115.794L295.206 42.6765C297.136 25.0371 282.959 9.79534 265.227 10.4463L34.2177 18.9267C14.9807 19.633 1.72337 38.4977 7.57766 56.8369Z" fill="#00BF62"/>
<path d="M270.513 21.2372L38.6461 10.0647C19.516 9.14312 4.14488 25.6312 6.40263 44.6491L12.5025 96.0134C14.2546 110.768 26.2391 122.199 41.0596 123.253L207.181 135.056L209.261 154.655L219.074 135.901L256.589 138.567C272.32 139.684 286.378 128.802 289.24 113.294L299.479 57.7889C302.878 39.348 289.242 22.139 270.513 21.2372Z" fill="url(#paint0_linear_42_543)"/>
<path d="M48.3412 18.8317C48.3412 24.0786 44.5756 27.4415 39.4634 27.4415C34.3511 27.4415 30.5842 24.0786 30.5842 18.8317C30.5842 16.6796 30.8536 15.0661 33.2077 10.0212L37.9159 0H47.3324L43.9696 11.3666C46.6604 12.6433 48.3412 15.2668 48.3412 18.8317ZM67.8462 18.8317C67.8462 24.0786 64.0793 27.4415 58.9684 27.4415C53.8561 27.4415 50.0893 24.0786 50.0893 18.8317C50.0893 16.6796 50.3586 15.0661 52.7127 10.0212L57.421 0H66.8375L63.4746 11.3666C66.1655 12.6433 67.8462 15.2668 67.8462 18.8317Z" fill="#00BF62"/>
<path d="M244.534 127.932C244.534 122.685 248.299 119.322 253.411 119.322C258.524 119.322 262.291 122.685 262.291 127.932C262.291 130.084 262.021 131.698 259.667 136.743L254.959 146.764H245.542L248.905 135.397C246.216 134.12 244.534 131.497 244.534 127.932ZM225.029 127.932C225.029 122.685 228.795 119.322 233.906 119.322C239.019 119.322 242.786 122.685 242.786 127.932C242.786 130.084 242.516 131.698 240.162 136.743L235.454 146.764H226.037L229.4 135.397C226.709 134.12 225.029 131.497 225.029 127.932Z" fill="#00BF62"/>
<defs>
<linearGradient id="paint0_linear_42_543" x1="153.091" y1="14.1437" x2="153.091" y2="152.011" gradientUnits="userSpaceOnUse">
<stop stop-color="white"/>
<stop offset="1" stop-color="#D4D4D4"/>
</linearGradient>
</defs>
</svg>
