<svg width="60" height="60" viewBox="0 0 60 60" fill="none" xmlns="http://www.w3.org/2000/svg">
<g clip-path="url(#clip0_114_2086)">
<g clip-path="url(#clip1_114_2086)">
<g clip-path="url(#clip2_114_2086)">
<path d="M60 30C60 13.4315 46.5685 0 30 0C13.4315 0 0 13.4315 0 30C0 46.5685 13.4315 60 30 60C46.5685 60 60 46.5685 60 30Z" fill="#ECF8FF"/>
<path d="M20.4102 39.9999C19.7367 39.9999 19.1666 39.7666 18.7 39.2999C18.2333 38.8333 18 38.2632 18 37.5897V22.4103C18 21.7368 18.2333 21.1667 18.7 20.7C19.1666 20.2333 19.7367 20 20.4102 20H35.5896C36.2631 20 36.8332 20.2333 37.2999 20.7C37.7666 21.1667 37.9999 21.7368 37.9999 22.4103V28.5128L41.6614 24.8513C41.858 24.6548 42.0789 24.6056 42.3242 24.7039C42.5695 24.8022 42.6921 24.9898 42.6921 25.2667V34.7332C42.6921 35.0101 42.5695 35.1977 42.3242 35.296C42.0789 35.3943 41.858 35.3452 41.6614 35.1486L37.9999 31.4871V37.5897C37.9999 38.2632 37.7666 38.8333 37.2999 39.2999C36.8332 39.7666 36.2631 39.9999 35.5896 39.9999H20.4102Z" fill="#00BF62"/>
</g>
</g>
</g>
<defs>
<clipPath id="clip0_114_2086">
<rect width="60" height="60" fill="white"/>
</clipPath>
<clipPath id="clip1_114_2086">
<rect width="60" height="60" fill="white"/>
</clipPath>
<clipPath id="clip2_114_2086">
<rect width="60" height="60" fill="white"/>
</clipPath>
</defs>
</svg>
