<svg width="60" height="60" viewBox="0 0 60 60" fill="none" xmlns="http://www.w3.org/2000/svg">
<g clip-path="url(#clip0_90_186)">
<g clip-path="url(#clip1_90_186)">
<path d="M60 30C60 13.4315 46.5685 0 30 0C13.4315 0 0 13.4315 0 30C0 46.5685 13.4315 60 30 60C46.5685 60 60 46.5685 60 30Z" fill="#ECF8FF"/>
<path d="M41.2813 34.5896V27.1076L31.1506 32.6075C30.7877 32.8127 30.4047 32.9152 30.0015 32.9152C29.5983 32.9152 29.2138 32.8127 28.848 32.6075L18.6584 27.0512C18.4396 26.9264 18.2823 26.7746 18.1866 26.5957C18.0908 26.4169 18.043 26.2182 18.043 25.9996C18.043 25.781 18.0908 25.5824 18.1866 25.4038C18.2823 25.2251 18.4396 25.0734 18.6584 24.9486L28.8475 19.399C29.0284 19.2985 29.2143 19.2231 29.4052 19.1728C29.5961 19.1225 29.7942 19.0974 29.9993 19.0974C30.2044 19.0974 30.4024 19.123 30.5932 19.1743C30.784 19.2256 30.9698 19.3025 31.1506 19.4051L42.6454 25.6589C42.8472 25.7602 43.0037 25.9072 43.1147 26.0997C43.2257 26.2923 43.2812 26.5 43.2812 26.723V34.5896C43.2812 34.8729 43.1854 35.1104 42.9936 35.3021C42.8019 35.4937 42.5643 35.5896 42.2808 35.5896C41.9974 35.5896 41.7599 35.4937 41.5685 35.3021C41.377 35.1104 41.2813 34.8729 41.2813 34.5896ZM28.848 39.8254L22.5916 36.4434C22.1985 36.2246 21.8904 35.9244 21.6673 35.5428C21.4442 35.1612 21.3327 34.7494 21.3327 34.3075V29.7024L28.848 33.7742C29.2109 33.9793 29.5939 34.0819 29.9971 34.0819C30.4003 34.0819 30.7848 33.9793 31.1506 33.7742L38.6659 29.7024V34.3099C38.6659 34.7545 38.5544 35.1665 38.3313 35.546C38.1082 35.9255 37.8001 36.2246 37.407 36.4434L31.1506 39.8254C30.9688 39.928 30.782 40.0049 30.5901 40.0562C30.3982 40.1075 30.2013 40.1331 29.9993 40.1331C29.7973 40.1331 29.6004 40.1075 29.4085 40.0562C29.2166 40.0049 29.0298 39.928 28.848 39.8254Z" fill="#00BF62"/>
</g>
</g>
<defs>
<clipPath id="clip0_90_186">
<rect width="60" height="60" fill="white"/>
</clipPath>
<clipPath id="clip1_90_186">
<rect width="60" height="60" fill="white"/>
</clipPath>
</defs>
</svg>
