<svg width="60" height="60" viewBox="0 0 60 60" fill="none" xmlns="http://www.w3.org/2000/svg">
<g clip-path="url(#clip0_114_2086)">
<g clip-path="url(#clip1_114_2086)">
<g clip-path="url(#clip2_114_2086)">
<path d="M60 30C60 13.4315 46.5685 0 30 0C13.4315 0 0 13.4315 0 30C0 46.5685 13.4315 60 30 60C46.5685 60 60 46.5685 60 30Z" fill="#ECF8FF"/>
<path d="M27 21.6666H32.3333V19.4102C32.3333 19.2906 32.2948 19.1923 32.2179 19.1153C32.141 19.0384 32.0427 18.9999 31.923 18.9999H27.4103C27.2906 18.9999 27.1923 19.0384 27.1154 19.1153C27.0384 19.1923 27 19.2906 27 19.4102V21.6666ZM37.6666 42.9999C36.0017 42.9999 34.5855 42.4161 33.4179 41.2486C32.2504 40.0811 31.6667 38.6648 31.6667 36.9999C31.6667 35.335 32.2504 33.9187 33.4179 32.7512C34.5855 31.5837 36.0017 30.9999 37.6666 30.9999C39.3316 30.9999 40.7478 31.5837 41.9153 32.7512C43.0828 33.9187 43.6666 35.335 43.6666 36.9999C43.6666 38.6648 43.0828 40.0811 41.9153 41.2486C40.7478 42.4161 39.3316 42.9999 37.6666 42.9999ZM19.4103 40.3332C18.7367 40.3332 18.1667 40.0999 17.7 39.6332C17.2333 39.1665 17 38.5964 17 37.9229V24.0769C17 23.4034 17.2333 22.8333 17.7 22.3666C18.1667 21.8999 18.7367 21.6666 19.4103 21.6666H25V19.4102C25 18.7367 25.2333 18.1667 25.7 17.7C26.1667 17.2333 26.7367 17 27.4103 17H31.923C32.5965 17 33.1666 17.2333 33.6333 17.7C34.0999 18.1667 34.3333 18.7367 34.3333 19.4102V21.6666H39.923C40.5965 21.6666 41.1666 21.8999 41.6333 22.3666C42.0999 22.8333 42.3333 23.4034 42.3333 24.0769V29.7256C41.6409 29.264 40.8969 28.9166 40.1012 28.6833C39.3055 28.4499 38.494 28.3333 37.6666 28.3333C35.2684 28.3333 33.2243 29.1781 31.5346 30.8679C29.8449 32.5576 29 34.6016 29 36.9999C29 37.5691 29.0551 38.1349 29.1654 38.6973C29.2756 39.2597 29.4479 39.805 29.6821 40.3332H19.4103ZM38.2564 36.7589V33.6666C38.2564 33.5059 38.1982 33.3674 38.082 33.2512C37.9658 33.135 37.8273 33.0768 37.6666 33.0768C37.5059 33.0768 37.3675 33.135 37.2513 33.2512C37.135 33.3674 37.0769 33.5059 37.0769 33.6666V36.7384C37.0769 36.8991 37.1059 37.052 37.1641 37.1973C37.2222 37.3426 37.3136 37.4777 37.4384 37.6025L39.4513 39.6153C39.5675 39.7315 39.7038 39.7918 39.8602 39.796C40.0166 39.8003 40.1572 39.7401 40.282 39.6153C40.4068 39.4905 40.4692 39.352 40.4692 39.1999C40.4692 39.0478 40.4068 38.9093 40.282 38.7845L38.2564 36.7589Z" fill="#00BF62"/>
</g>
</g>
</g>
<defs>
<clipPath id="clip0_114_2086">
<rect width="60" height="60" fill="white"/>
</clipPath>
<clipPath id="clip1_114_2086">
<rect width="60" height="60" fill="white"/>
</clipPath>
<clipPath id="clip2_114_2086">
<rect width="60" height="60" fill="white"/>
</clipPath>
</defs>
</svg>
