<svg width="60" height="60" viewBox="0 0 60 60" fill="none" xmlns="http://www.w3.org/2000/svg">
<g clip-path="url(#clip0_114_2086)">
<g clip-path="url(#clip1_114_2086)">
<g clip-path="url(#clip2_114_2086)">
<path d="M60 30C60 13.4315 46.5685 0 30 0C13.4315 0 0 13.4315 0 30C0 46.5685 13.4315 60 30 60C46.5685 60 60 46.5685 60 30Z" fill="#ECF8FF"/>
<path d="M16.1538 36.9742C15.8269 36.9742 15.5529 36.8636 15.3317 36.6424C15.1106 36.4213 15 36.1472 15 35.8203V35.3486C15 34.4614 15.4633 33.7327 16.3897 33.1627C17.3162 32.5926 18.5239 32.3075 20.0128 32.3075C20.2589 32.3075 20.5068 32.3152 20.7564 32.3306C21.006 32.346 21.2572 32.3759 21.5102 32.4204C21.2504 32.8357 21.0577 33.2669 20.932 33.7139C20.8064 34.1609 20.7436 34.6195 20.7436 35.0896V36.9742H16.1538ZM24.2104 36.9742C23.8633 36.9742 23.5748 36.8587 23.3449 36.6277C23.1149 36.3967 23 36.1105 23 35.769V35.1409C23 34.5166 23.1752 33.946 23.5256 33.4291C23.8761 32.9122 24.3812 32.4614 25.041 32.0768C25.7008 31.6922 26.4803 31.4037 27.3794 31.2114C28.2786 31.0191 29.2615 30.9229 30.3281 30.9229C31.4153 30.9229 32.4085 31.0191 33.3076 31.2114C34.2067 31.4037 34.9862 31.6922 35.6461 32.0768C36.3059 32.4614 36.8076 32.9122 37.1512 33.4291C37.4948 33.946 37.6666 34.5166 37.6666 35.1409V35.769C37.6666 36.1105 37.5511 36.3967 37.3201 36.6277C37.0891 36.8587 36.8029 36.9742 36.4614 36.9742H24.2104ZM39.923 36.9742V35.0914C39.923 34.5893 39.8636 34.1169 39.7448 33.6742C39.626 33.2315 39.4478 32.8135 39.2102 32.4204C39.4717 32.3759 39.7217 32.346 39.9602 32.3306C40.1986 32.3152 40.4341 32.3075 40.6666 32.3075C42.1555 32.3075 43.361 32.5891 44.2832 33.1524C45.2055 33.7156 45.6666 34.4477 45.6666 35.3486V35.8203C45.6666 36.1472 45.556 36.4213 45.3348 36.6424C45.1137 36.8636 44.8397 36.9742 44.5127 36.9742H39.923ZM20.0094 31.0127C19.3809 31.0127 18.844 30.7892 18.3987 30.3423C17.9534 29.8954 17.7308 29.3582 17.7308 28.7307C17.7308 28.0948 17.9542 27.5576 18.4011 27.1191C18.848 26.6807 19.3852 26.4614 20.0128 26.4614C20.6487 26.4614 21.188 26.6807 21.6307 27.1191C22.0734 27.5576 22.2948 28.096 22.2948 28.7345C22.2948 29.3541 22.0758 29.8887 21.6377 30.3383C21.1997 30.7879 20.6569 31.0127 20.0094 31.0127ZM40.6666 31.0127C40.0444 31.0127 39.5085 30.7879 39.0589 30.3383C38.6094 29.8887 38.3846 29.3541 38.3846 28.7345C38.3846 28.096 38.6094 27.5576 39.0589 27.1191C39.5085 26.6807 40.0452 26.4614 40.6691 26.4614C41.3119 26.4614 41.8525 26.6807 42.2909 27.1191C42.7294 27.5576 42.9486 28.0948 42.9486 28.7307C42.9486 29.3582 42.7299 29.8954 42.2925 30.3423C41.8551 30.7892 41.3132 31.0127 40.6666 31.0127ZM30.3378 29.9229C29.3775 29.9229 28.5598 29.5864 27.8846 28.9133C27.2094 28.2403 26.8718 27.423 26.8718 26.4614C26.8718 25.4807 27.2083 24.6586 27.8814 23.9951C28.5544 23.3317 29.3717 23 30.3333 23C31.314 23 32.1361 23.3312 32.7996 23.9938C33.4631 24.6564 33.7948 25.4774 33.7948 26.4569C33.7948 27.4172 33.4635 28.2349 32.8009 28.9101C32.1383 29.5853 31.3173 29.9229 30.3378 29.9229Z" fill="#00BF62"/>
</g>
</g>
</g>
<defs>
<clipPath id="clip0_114_2086">
<rect width="60" height="60" fill="white"/>
</clipPath>
<clipPath id="clip1_114_2086">
<rect width="60" height="60" fill="white"/>
</clipPath>
<clipPath id="clip2_114_2086">
<rect width="60" height="60" fill="white"/>
</clipPath>
</defs>
</svg>
